<?xml version="1.0" encoding="UTF-8" standalone="no"?>
<!-- Created with Inkscape (http://www.inkscape.org/) -->

<svg
   width="196mm"
   height="196mm"
   viewBox="0 0 196 196"
   version="1.1"
   id="svg1"
   inkscape:export-filename="cloudy_night.svg"
   inkscape:export-xdpi="30.6"
   inkscape:export-ydpi="30.6"
   xmlns:inkscape="http://www.inkscape.org/namespaces/inkscape"
   xmlns:sodipodi="http://sodipodi.sourceforge.net/DTD/sodipodi-0.dtd"
   xmlns="http://www.w3.org/2000/svg"
   xmlns:svg="http://www.w3.org/2000/svg">
  <sodipodi:namedview
     id="namedview1"
     pagecolor="#ffffff"
     bordercolor="#000000"
     borderopacity="0.25"
     inkscape:showpageshadow="2"
     inkscape:pageopacity="0.0"
     inkscape:pagecheckerboard="0"
     inkscape:deskcolor="#d1d1d1"
     inkscape:document-units="mm">
    <inkscape:page
       x="0"
       y="0"
       width="196"
       height="196"
       id="page2"
       margin="0"
       bleed="0" />
  </sodipodi:namedview>
  <defs
     id="defs1" />
  <g
     inkscape:label="Layer 1"
     inkscape:groupmode="layer"
     id="layer1">
    <g
       id="g100"
       transform="matrix(0.39182378,0,0,0.39182378,-989.26582,-323.94107)"
       inkscape:label="clouds day rain"
       style="display:inline">
      <path
         fill="#010202"
         d="m 2868.5322,1073.5005 c -2.5156,0 -5.0263,-0.9927 -6.8945,-2.9619 -3.6104,-3.8067 -3.4522,-9.8194 0.3545,-13.4302 14.4902,-13.7456 22.4707,-32.3105 22.4707,-52.2749 0,-39.72217 -32.3164,-72.03809 -72.0381,-72.03809 -34.8887,0 -64.7012,24.87305 -70.8887,59.14258 -0.9326,5.16211 -5.8769,8.59131 -11.0361,7.66064 -5.1641,-0.93213 -8.5937,-5.87354 -7.6611,-11.03662 7.8213,-43.32275 45.498,-74.7666 89.5859,-74.7666 50.1983,0 91.0381,40.83936 91.0381,91.03809 0,25.2295 -10.084,48.6899 -28.3945,66.0591 -1.8369,1.7431 -4.1895,2.6079 -6.5362,2.6079 z"
         id="path18" />
      <path
         fill="#010202"
         d="m 2784.2685,905.82764 c -4.3701,0 -8.3037,-3.03271 -9.2724,-7.47705 l -10.0186,-45.91992 c -1.1191,-5.12598 2.1299,-10.18799 7.2559,-11.30664 5.1357,-1.11963 10.1895,2.13135 11.3066,7.25684 l 10.0186,45.91992 c 1.1191,5.12598 -2.1299,10.18799 -7.2559,11.30664 -0.6826,0.14892 -1.3642,0.22021 -2.0342,0.22021 z"
         id="path19" />
      <path
         fill="#010202"
         d="m 2923.9004,994.60498 c -4.3701,0 -8.3037,-3.03271 -9.2725,-7.47705 -1.1191,-5.12598 2.1299,-10.18799 7.2559,-11.30664 l 48.8506,-10.65771 c 5.1367,-1.11963 10.1894,2.13135 11.3066,7.25684 1.1192,5.12598 -2.1299,10.18799 -7.2558,11.30664 l -48.8506,10.65771 c -0.6827,0.14892 -1.3643,0.22021 -2.0342,0.22021 z"
         id="path20" />
      <path
         fill="#010202"
         d="m 2872.7725,921.85742 c -1.7569,0 -3.5342,-0.48633 -5.1231,-1.50586 -4.415,-2.83398 -5.6973,-8.71094 -2.8633,-13.12646 l 26.8086,-41.76904 c 2.834,-4.41553 8.71,-5.69727 13.127,-2.86377 4.415,2.83398 5.6972,8.71094 2.8633,13.12646 l -26.8086,41.76904 c -1.8145,2.82715 -4.877,4.36963 -8.0039,4.36963 z"
         id="path21" />
      <path
         fill="#010202"
         d="m 2716.0254,956.05469 c -1.7569,0 -3.5342,-0.48633 -5.1221,-1.50586 l -41.7695,-26.80811 c -4.416,-2.83398 -5.6983,-8.71094 -2.8643,-13.12646 2.834,-4.41552 8.711,-5.69727 13.126,-2.86377 l 41.7695,26.80811 c 4.4161,2.83398 5.6983,8.71094 2.8643,13.12646 -1.8145,2.82715 -4.877,4.36963 -8.0039,4.36963 z"
         id="path22" />
      <path
         fill="#010202"
         d="m 2947.7617,1105.6265 c -1.7568,0 -3.5342,-0.4864 -5.123,-1.5059 l -41.7686,-26.8081 c -4.415,-2.834 -5.6972,-8.7109 -2.8633,-13.1265 2.834,-4.4155 8.71,-5.6987 13.127,-2.8637 l 41.7685,26.8081 c 4.4151,2.834 5.6973,8.7109 2.8633,13.1264 -1.8144,2.8272 -4.8769,4.3697 -8.0039,4.3697 z"
         id="path23" />
      <path
         fill="#010202"
         d="m 2631.1104,1213.5606 c -35.0987,-0.231 -63.6026,-28.8804 -63.6026,-63.8648 0,-30.2554 20.7705,-55.5693 49.1094,-62.1797 -0.417,-2.4292 -0.626,-4.9048 -0.626,-7.4189 0,-24.0269 19.5469,-43.5743 43.5742,-43.5743 7.8457,0 15.3721,2.0586 21.9649,5.9209 18.1933,-23.8579 46.1426,-37.8203 76.6338,-37.8203 47.7441,0 88.0068,35.0796 95.3095,81.3692 33.0411,2.4067 59.1875,30.0586 59.1875,63.7031 0,34.8686 -28.3681,63.5161 -63.2363,63.8599 z m 28.455,-158.0376 c -13.5498,0 -24.5742,11.0239 -24.5742,24.5742 0,3.8662 0.877,7.5713 2.6074,11.0117 1.4512,2.8857 1.3369,6.3105 -0.3037,9.0928 -1.6396,2.7822 -4.581,4.5405 -7.8086,4.6679 -24.1006,0.9517 -42.9785,20.6416 -42.9785,44.8262 0,24.5762 20.0371,44.7026 44.665,44.8648 h 218.1582 c 24.4014,-0.2408 44.3301,-20.3653 44.3301,-44.8604 0,-24.7431 -20.1308,-44.8735 -44.874,-44.8735 -0.9258,0 -1.9277,0.039 -3.1553,0.1245 -2.5302,0.1797 -5.0107,-0.6631 -6.9121,-2.3272 -1.9033,-1.6645 -3.0635,-4.019 -3.2256,-6.542 -2.6064,-40.6284 -36.5732,-72.4541 -77.33,-72.4541 -27.3311,0 -52.1231,13.9717 -66.3165,37.3741 -1.5156,2.498 -4.0957,4.1601 -6.997,4.5063 -2.9033,0.3447 -5.8018,-0.6626 -7.8614,-2.7334 -4.6484,-4.6738 -10.8369,-7.2475 -17.4238,-7.2475 z"
         id="path24" />
      <path
         fill="#010202"
         d="m 2714.4522,1312.8218 c -2.4327,0 -4.8653,-0.9287 -6.7207,-2.7857 -3.7081,-3.7119 -3.7051,-9.727 0.01,-13.435 l 22.6875,-22.6646 c 3.7119,-3.7075 9.7266,-3.705 13.4346,0.01 3.708,3.7119 3.705,9.727 -0.01,13.435 l -22.6875,22.6646 c -1.8545,1.853 -4.2842,2.7793 -6.7138,2.7793 z"
         id="path25" />
      <path
         fill="#010202"
         d="m 2635.6318,1261.1811 c -2.4326,0 -4.8652,-0.9287 -6.7207,-2.7861 -3.708,-3.7119 -3.705,-9.7265 0.01,-13.435 l 14.3076,-14.293 c 3.7109,-3.707 9.7256,-3.7046 13.4346,0.01 3.708,3.7119 3.7051,9.7266 -0.01,13.4351 l -14.3076,14.2929 c -1.8545,1.8526 -4.2842,2.7788 -6.7139,2.7788 z"
         id="path26" />
      <path
         fill="#010202"
         d="m 2761.5635,1261.1811 c -2.4326,0 -4.8652,-0.9282 -6.7207,-2.7856 -3.708,-3.7119 -3.7051,-9.727 0.01,-13.4351 l 14.3067,-14.2929 c 3.7119,-3.7071 9.7265,-3.7056 13.4345,0.01 3.708,3.712 3.7051,9.7271 -0.01,13.4351 l -14.3067,14.293 c -1.8544,1.8525 -4.2841,2.7792 -6.7138,2.7792 z"
         id="path27" />
      <path
         fill="#010202"
         d="m 2802.333,1283.9785 c -2.4336,0 -4.8662,-0.9292 -6.7217,-2.7866 -3.708,-3.7124 -3.7041,-9.7275 0.01,-13.4351 l 37.1377,-37.0903 c 3.7119,-3.708 9.7266,-3.7036 13.4346,0.01 3.708,3.7124 3.7041,9.7275 -0.01,13.4351 l -37.1377,37.0903 c -1.8545,1.8525 -4.2832,2.7783 -6.7129,2.7783 z"
         id="path28" />
      <path
         fill="#010202"
         d="m 2665.5293,1293.9443 c -2.4326,0 -4.8652,-0.9287 -6.7207,-2.7856 -3.708,-3.7119 -3.7051,-9.727 0.01,-13.4351 l 47.1036,-47.0561 c 3.7119,-3.708 9.7265,-3.7046 13.4345,0.01 3.708,3.712 3.7051,9.7271 -0.01,13.4351 l -47.1035,47.0562 c -1.8545,1.853 -4.2842,2.7792 -6.7139,2.7792 z"
         id="path29" />
    </g>
  </g>
</svg>
