<?xml version="1.0" encoding="UTF-8" standalone="no"?>
<!-- Created with Inkscape (http://www.inkscape.org/) -->

<svg
   width="196mm"
   height="196mm"
   viewBox="0 0 196 196"
   version="1.1"
   id="svg1"
   inkscape:export-filename="cloudy_day.svg"
   inkscape:export-xdpi="30.6"
   inkscape:export-ydpi="30.6"
   xmlns:inkscape="http://www.inkscape.org/namespaces/inkscape"
   xmlns:sodipodi="http://sodipodi.sourceforge.net/DTD/sodipodi-0.dtd"
   xmlns="http://www.w3.org/2000/svg"
   xmlns:svg="http://www.w3.org/2000/svg">
  <sodipodi:namedview
     id="namedview1"
     pagecolor="#ffffff"
     bordercolor="#000000"
     borderopacity="0.25"
     inkscape:showpageshadow="2"
     inkscape:pageopacity="0.0"
     inkscape:pagecheckerboard="0"
     inkscape:deskcolor="#d1d1d1"
     inkscape:document-units="mm">
    <inkscape:page
       x="0"
       y="0"
       width="196"
       height="196"
       id="page2"
       margin="0"
       bleed="0" />
  </sodipodi:namedview>
  <defs
     id="defs1" />
  <g
     inkscape:label="Layer 1"
     inkscape:groupmode="layer"
     id="layer1">
    <g
       id="g99"
       transform="matrix(0.39182378,0,0,0.39182378,-775.41538,-321.6625)"
       inkscape:label="cluds night"
       style="display:inline">
      <g
         id="g98">
        <path
           fill="#010202"
           d="m 2076.9668,1252 c -38.4717,-0.2534 -69.7168,-31.6582 -69.7168,-70.0064 0,-33.3242 22.9863,-61.1796 54.2793,-68.2622 -0.5088,-2.7998 -0.7646,-5.6567 -0.7646,-8.5595 0,-26.2525 21.3584,-47.6104 47.6103,-47.6104 8.7207,0 17.0781,2.3267 24.3701,6.688 19.9815,-26.4228 50.8125,-41.8975 84.46,-41.8975 52.5879,0 96.916,38.7383 104.7812,89.7842 36.3985,2.4522 65.2637,32.8477 65.2637,69.8574 0,38.2222 -31.0957,69.6246 -69.3184,70.001 z m 31.4082,-174.4385 c -15.2246,0 -27.6103,12.3858 -27.6103,27.6104 0,4.3427 0.9863,8.5058 2.9306,12.374 1.5264,3.0371 1.4063,6.6421 -0.3203,9.5708 -1.7266,2.9282 -4.8232,4.7788 -8.2197,4.9131 -26.8623,1.0605 -47.9053,23.0073 -47.9053,49.9638 0,27.3926 22.332,49.8257 49.7822,50.0064 h 240.8008 c 27.2041,-0.2685 49.417,-22.6992 49.417,-50.0014 0,-27.5796 -22.4375,-50.0171 -50.0166,-50.0171 -1.0273,0 -2.1445,0.044 -3.5146,0.1396 -2.6446,0.1826 -5.2745,-0.6968 -7.2774,-2.4492 -2.0029,-1.7524 -3.2256,-4.2305 -3.3955,-6.8867 -2.8935,-45.1001 -40.5996,-80.4282 -85.8408,-80.4282 -30.3389,0 -57.8584,15.5088 -73.6143,41.4863 -1.5947,2.6299 -4.3115,4.3794 -7.3652,4.7436 -3.0547,0.3628 -6.1055,-0.6967 -8.2754,-2.8779 -5.2217,-5.251 -12.1738,-8.1426 -19.5752,-8.1426 z"
           id="path30" />
        <path
           fill="#010202"
           d="m 2376.2402,1127.1675 c -4.5332,0 -8.6386,-3.1035 -9.7246,-7.7075 -1.2676,-5.3755 2.0625,-10.7603 7.4385,-12.0279 18.3379,-4.3242 34.9551,-13.7363 48.0859,-27.0385 -22.9423,-5.4541 -43.8486,-17.5982 -60.1504,-35.1827 -20.621,-22.2441 -31.9775,-51.20846 -31.9775,-81.55758 0,-18.6582 4.249,-36.75342 12.4023,-53.19141 -23.0048,1.95312 -44.4706,11.72461 -61.1806,28.00537 -18.7422,18.25977 -29.4609,42.69678 -30.1826,68.80962 -0.1533,5.521 -4.7383,9.9106 -10.2725,9.7197 -5.5205,-0.1524 -9.8721,-4.7515 -9.7197,-10.2725 0.8662,-31.34275 13.7285,-60.67088 36.2178,-82.58201 22.5322,-21.95361 52.2705,-34.04395 83.7353,-34.04395 3.206,0 6.4902,0.1333 9.7588,0.39648 3.5771,0.2876 6.7256,2.47021 8.251,5.71875 1.5244,3.24854 1.1914,7.06494 -0.8721,10.00049 -11.8662,16.87744 -18.1377,36.73926 -18.1377,57.43945 0,25.29102 9.4629,49.42629 26.6445,67.96049 17.0908,18.4355 40.2461,29.6963 65.2022,31.7075 3.5761,0.2885 6.7246,2.4712 8.249,5.7192 1.5244,3.2486 1.1914,7.065 -0.8721,10 -16.9638,24.1275 -42.0342,41.1236 -70.5918,47.8574 -0.7714,0.1822 -1.5439,0.2696 -2.3037,0.2696 z"
           id="path31" />
      </g>
    </g>
  </g>
</svg>
