<?xml version="1.0" encoding="UTF-8" standalone="no"?>
<!-- Created with Inkscape (http://www.inkscape.org/) -->

<svg
   width="196mm"
   height="196mm"
   viewBox="0 0 196 196"
   version="1.1"
   id="svg1"
   inkscape:export-filename="overcast_wind_rain.svg"
   inkscape:export-xdpi="30.6"
   inkscape:export-ydpi="30.6"
   xmlns:inkscape="http://www.inkscape.org/namespaces/inkscape"
   xmlns:sodipodi="http://sodipodi.sourceforge.net/DTD/sodipodi-0.dtd"
   xmlns="http://www.w3.org/2000/svg"
   xmlns:svg="http://www.w3.org/2000/svg">
  <sodipodi:namedview
     id="namedview1"
     pagecolor="#ffffff"
     bordercolor="#000000"
     borderopacity="0.25"
     inkscape:showpageshadow="2"
     inkscape:pageopacity="0.0"
     inkscape:pagecheckerboard="0"
     inkscape:deskcolor="#d1d1d1"
     inkscape:document-units="mm">
    <inkscape:page
       x="0"
       y="0"
       width="196"
       height="196"
       id="page2"
       margin="0"
       bleed="0" />
  </sodipodi:namedview>
  <defs
     id="defs1" />
  <g
     inkscape:label="Layer 1"
     inkscape:groupmode="layer"
     id="layer1">
    <g
       id="g2"
       transform="matrix(1.4809088,0,0,1.4809088,-57.554037,-88.439145)"
       style="display:inline"
       inkscape:label="overcast">
      <path
         fill="#010202"
         d="m 73.214652,156.2756 c -10.178965,-0.067 -18.445903,-8.37623 -18.445903,-18.52252 0,-8.81703 6.081929,-16.18713 14.361268,-18.06118 -0.134617,-0.74065 -0.202184,-1.4964 -0.202184,-2.26459 0,-6.94595 5.650947,-12.59689 12.597035,-12.59689 2.307095,0 4.518458,0.61572 6.447797,1.76953 5.286629,-6.991049 13.444015,-11.085373 22.346825,-11.085373 13.91401,0 25.64224,10.249503 27.72312,23.755393 9.63042,0.64881 17.2678,8.69096 17.2678,18.48311 0,10.11295 -8.2274,18.4215 -18.34035,18.52109 z m 8.310216,-46.15352 c -4.028178,0 -7.305368,3.27708 -7.305368,7.30525 0,1.14914 0.260836,2.25076 0.775276,3.27396 0.403982,0.80356 0.372071,1.75739 -0.08475,2.53227 -0.456819,0.77476 -1.27602,1.26439 -2.174804,1.29993 -7.107319,0.28059 -12.674809,6.08734 -12.674809,13.21959 0,7.24762 5.908813,13.18305 13.171675,13.23086 h 63.711872 c 7.19775,-0.071 13.07478,-6.00583 13.07478,-13.22954 0,-7.2971 -5.93658,-13.23369 -13.23355,-13.23369 -0.27195,0 -0.56754,0.0116 -0.93018,0.0369 -0.70202,0.049 -1.39539,-0.18449 -1.92533,-0.64801 -0.52995,-0.46366 -0.85331,-1.11946 -0.8984,-1.82211 -0.76546,-11.93273 -10.74159,-21.27997 -22.71179,-21.27997 -8.02742,0 -15.3085,4.10336 -19.476979,10.97646 -0.421939,0.69583 -1.140756,1.15872 -1.948846,1.25521 -0.807702,0.0954 -1.615535,-0.18434 -2.189401,-0.76144 -1.381699,-1.38933 -3.221119,-2.1544 -5.179398,-2.1544 z"
         id="path59"
         style="stroke-width:0.264583" />
    </g>
  </g>
</svg>
