<?xml version="1.0" encoding="UTF-8" standalone="no"?>
<!-- Created with Inkscape (http://www.inkscape.org/) -->

<svg
   width="196mm"
   height="196mm"
   viewBox="0 0 196 196"
   version="1.1"
   id="svg1"
   inkscape:export-filename="overcast_wind_rain.svg"
   inkscape:export-xdpi="30.6"
   inkscape:export-ydpi="30.6"
   xmlns:inkscape="http://www.inkscape.org/namespaces/inkscape"
   xmlns:sodipodi="http://sodipodi.sourceforge.net/DTD/sodipodi-0.dtd"
   xmlns="http://www.w3.org/2000/svg"
   xmlns:svg="http://www.w3.org/2000/svg">
  <sodipodi:namedview
     id="namedview1"
     pagecolor="#ffffff"
     bordercolor="#000000"
     borderopacity="0.25"
     inkscape:showpageshadow="2"
     inkscape:pageopacity="0.0"
     inkscape:pagecheckerboard="0"
     inkscape:deskcolor="#d1d1d1"
     inkscape:document-units="mm">
    <inkscape:page
       x="0"
       y="0"
       width="196"
       height="196"
       id="page2"
       margin="0"
       bleed="0" />
  </sodipodi:namedview>
  <defs
     id="defs1" />
  <g
     inkscape:label="Layer 1"
     inkscape:groupmode="layer"
     id="layer1">
    <g
       id="g1"
       transform="translate(-7.039974,-50.58687)"
       style="display:inline"
       inkscape:label="rain wind">
      <path
         fill="#010202"
         d="M 176.19675,164.90407 H 51.711195 c -2.163847,0 -3.918237,-1.7544 -3.918237,-3.91825 0,-2.16384 1.75439,-3.91823 3.918237,-3.91823 H 176.19675 c 3.48354,0 6.42646,-2.98116 6.42646,-6.50988 0,-3.58953 -2.83384,-6.50984 -6.31742,-6.50984 -3.45331,0 -6.26306,2.89965 -6.26306,6.46356 0,2.16381 -1.75441,3.91825 -3.91825,3.91825 -2.1638,0 -3.91823,-1.75444 -3.91823,-3.91825 0,-7.88506 6.32505,-14.30003 14.09954,-14.30003 7.80434,0 14.15389,6.43562 14.15389,14.34631 0,7.91073 -6.39814,14.34636 -14.26293,14.34636 z"
         id="path50"
         style="stroke-width:0.391823" />
      <path
         fill="#010202"
         d="m 147.16162,209.01292 c -4.75967,0 -9.20865,-1.85121 -12.52687,-5.21232 -3.29685,-3.33966 -5.11249,-7.79859 -5.11249,-12.55521 0,-2.1638 1.75444,-3.91823 3.91824,-3.91823 2.16386,0 3.91824,1.75443 3.91824,3.91823 0,5.56896 4.30586,9.93105 9.80288,9.93105 5.54599,0 9.8905,-4.35214 9.8905,-9.90769 0,-5.46331 -4.51519,-9.90808 -10.06498,-9.90808 H 41.915601 c -2.163847,0 -3.918238,-1.7544 -3.918238,-3.91825 0,-2.16384 1.754391,-3.91823 3.918238,-3.91823 H 146.98714 c 9.87095,0 17.90145,7.96005 17.90145,17.74456 0,9.78411 -7.95241,17.74417 -17.72697,17.74417 z"
         id="path51"
         style="stroke-width:0.391823" />
      <path
         fill="#010202"
         d="M 104.27835,150.40658 H 61.898613 c -2.163846,0 -3.918238,-1.75439 -3.918238,-3.91823 0,-2.16385 1.754392,-3.91824 3.918238,-3.91824 h 42.379737 c 5.5498,0 10.06497,-4.47267 10.06497,-9.97047 0,-5.49775 -4.43673,-9.97085 -9.89049,-9.97085 -5.497013,0 -9.802881,4.38085 -9.802881,9.97316 0,2.1638 -1.754391,3.91824 -3.918239,3.91824 -2.163806,0 -3.918237,-1.75444 -3.918237,-3.91824 0,-9.82008 7.912999,-17.80964 17.639357,-17.80964 9.77455,0 17.72697,7.98839 17.72697,17.80733 0,9.81895 -8.03051,17.80694 -17.90145,17.80694 z"
         id="path52"
         style="stroke-width:0.391823" />
      <path
         fill="#010202"
         d="m 81.86517,229.92306 c -1.003656,0 -2.006962,-0.38301 -2.771841,-1.14905 -1.529405,-1.53094 -1.528268,-4.01196 0.0039,-5.54102 l 9.812051,-9.8021 c 1.530934,-1.52941 4.012394,-1.52827 5.541016,0.004 1.529405,1.53093 1.528268,4.01196 -0.0039,5.54101 l -9.812051,9.80209 c -0.764919,0.76414 -1.767047,1.14636 -2.769175,1.14636 z"
         id="path53"
         style="stroke-width:0.391823" />
      <path
         fill="#010202"
         d="m 47.776501,207.5891 c -1.003657,0 -2.006569,-0.383 -2.771839,-1.14905 -1.529406,-1.53093 -1.52827,-4.01162 0.0038,-5.54101 l 6.18768,-6.18154 c 1.530933,-1.52944 4.01161,-1.52827 5.541015,0.004 1.529406,1.53093 1.52827,4.0116 -0.0038,5.54101 l -6.187681,6.18156 c -0.764918,0.76414 -1.767047,1.14636 -2.769175,1.14636 z"
         id="path54"
         style="stroke-width:0.391823" />
      <path
         fill="#010202"
         d="m 102.24,207.5891 c -1.00366,0 -2.00656,-0.383 -2.771833,-1.14905 -1.529409,-1.53093 -1.528268,-4.01162 0.0044,-5.54101 l 6.187683,-6.18154 c 1.53093,-1.52944 4.01161,-1.52827 5.54101,0.004 1.52941,1.53093 1.52827,4.0116 -0.004,5.54101 l -6.18768,6.18156 c -0.76492,0.76414 -1.76705,1.14636 -2.76918,1.14636 z"
         id="path55"
         style="stroke-width:0.391823" />
      <path
         fill="#010202"
         d="m 119.08843,222.54231 c -1.00444,0 -2.00884,-0.38377 -2.77451,-1.15133 -1.52787,-1.5325 -1.52446,-4.01313 0.007,-5.5414 l 7.4416,-7.42095 c 1.53246,-1.52788 4.01274,-1.52482 5.54141,0.007 1.52787,1.53246 1.52442,4.01315 -0.007,5.54137 l -7.44158,7.42096 c -0.76489,0.7626 -1.76588,1.14369 -2.76687,1.14369 z"
         id="path56"
         style="stroke-width:0.391823" />
      <path
         fill="#010202"
         d="m 60.706686,221.75868 c -1.003657,0 -2.006961,-0.38301 -2.77184,-1.14907 -1.529407,-1.53094 -1.528269,-4.01161 0.0039,-5.54101 l 20.371781,-20.3511 c 1.530934,-1.52941 4.012353,-1.52827 5.541014,0.004 1.529407,1.53093 1.52827,4.0116 -0.0038,5.54101 L 63.47596,220.61363 c -0.764918,0.76411 -1.767047,1.14636 -2.769175,1.14636 z"
         id="path57"
         style="stroke-width:0.391823" />
      <path
         fill="#010202"
         d="m 131.94707,150.79841 h -3.83023 c -2.16385,0 -3.91825,-1.7544 -3.91825,-3.91824 0,-2.16385 1.7544,-3.91824 3.91825,-3.91824 h 3.76248 c 9.8622,-0.35739 17.57812,-8.15444 17.57812,-17.77708 0,-9.79027 -7.95242,-17.75491 -17.72698,-17.75491 -0.50278,0 -0.89879,0.0104 -1.24623,0.0353 -1.04613,0.0734 -2.06664,-0.27317 -2.85106,-0.95965 -0.78479,-0.68644 -1.26348,-1.65758 -1.33045,-2.69799 -1.03311,-16.106114 -14.49516,-28.722128 -30.647587,-28.722128 -10.833301,0 -20.658751,5.536041 -26.283187,14.808544 -0.624841,1.030461 -1.689348,1.716151 -2.88586,1.858896 -1.193064,0.142019 -2.392279,-0.272828 -3.242106,-1.127668 -1.825977,-1.835497 -4.25458,-2.84644 -6.839324,-2.84644 -5.318694,0 -9.645957,4.32686 -9.645957,9.645204 0,1.516791 0.344375,2.971202 1.023561,4.322682 0.598434,1.1904 0.550984,2.60273 -0.125537,3.74987 -0.676876,1.14754 -1.889844,1.87264 -3.220674,1.92506 -9.520102,0.37577 -16.977763,8.15409 -16.977763,17.70785 0,9.73933 7.91531,17.71511 17.644726,17.77901 h 3.38136 c 2.163848,0 3.917102,1.75631 3.915966,3.92051 0,2.16306 -1.755175,3.91597 -3.918238,3.91597 0,0 0,0 -0.0038,0 h -3.405105 c -14.045198,-0.0926 -25.452873,-11.58369 -25.452873,-25.61549 0,-12.06428 8.252436,-22.16523 19.530378,-24.85593 -0.153086,-0.934021 -0.229962,-1.884898 -0.229962,-2.849532 0,-9.639487 7.842588,-17.481684 17.482432,-17.481684 3.106654,0 6.088198,0.804681 8.708911,2.316496 7.268645,-9.471121 18.400006,-15.009825 30.541567,-15.009825 19.041352,0 35.104202,13.971338 38.061252,32.421107 13.17089,1.018198 23.57753,12.073068 23.57753,25.514858 0,13.89404 -11.07666,25.14407 -25.2175,25.61125 -0.043,0 -0.0862,0.004 -0.12929,0.004 z"
         id="path58"
         style="stroke-width:0.391823"
         inkscape:export-filename="path58.svg"
         inkscape:export-xdpi="30.6"
         inkscape:export-ydpi="30.6" />
    </g>
  </g>
</svg>
