<?xml version="1.0" encoding="UTF-8" standalone="no"?>
<!-- Created with Inkscape (http://www.inkscape.org/) -->

<svg
   width="196mm"
   height="196mm"
   viewBox="0 0 196 196"
   version="1.1"
   id="svg1"
   inkscape:export-filename="rain.svg"
   inkscape:export-xdpi="30.6"
   inkscape:export-ydpi="30.6"
   xmlns:inkscape="http://www.inkscape.org/namespaces/inkscape"
   xmlns:sodipodi="http://sodipodi.sourceforge.net/DTD/sodipodi-0.dtd"
   xmlns="http://www.w3.org/2000/svg"
   xmlns:svg="http://www.w3.org/2000/svg">
  <sodipodi:namedview
     id="namedview1"
     pagecolor="#ffffff"
     bordercolor="#000000"
     borderopacity="0.25"
     inkscape:showpageshadow="2"
     inkscape:pageopacity="0.0"
     inkscape:pagecheckerboard="0"
     inkscape:deskcolor="#d1d1d1"
     inkscape:document-units="mm">
    <inkscape:page
       x="0"
       y="0"
       width="196"
       height="196"
       id="page2"
       margin="0"
       bleed="0" />
  </sodipodi:namedview>
  <defs
     id="defs1" />
  <g
     inkscape:label="Layer 1"
     inkscape:groupmode="layer"
     id="layer1">
    <g
       id="g103"
       transform="matrix(0.39182378,0,0,0.39182378,-554.38658,-569.77314)"
       inkscape:label="snow"
       style="display:inline">
      <path
         fill="#010202"
         d="m 1785.5791,1742.0908 h -10.584 v 0 L 1544.7168,1742 c -38.4419,0 -69.7168,-31.3613 -69.7168,-69.9106 0,-33.2764 22.9863,-61.0938 54.2788,-68.168 -0.5083,-2.7988 -0.7641,-5.6553 -0.7641,-8.5576 0,-26.253 21.3579,-47.6114 47.6108,-47.6114 8.7207,0 17.0776,2.3262 24.3691,6.6871 19.9825,-26.4248 50.814,-41.9014 84.461,-41.9014 52.5844,0 96.9096,38.7285 104.7788,89.7661 36.4023,2.4482 65.2656,32.834 65.2656,69.8335 0,38.1963 -31.0967,69.5771 -69.3184,69.9521 -0.034,10e-4 -0.068,10e-4 -0.1025,10e-4 z m -10.5762,-20.0039 h 10.5313 c 27.2803,-0.2949 49.4658,-22.6938 49.4658,-49.9531 0,-27.5659 -22.4375,-49.9927 -50.0166,-49.9927 -1.1787,0 -2.4385,0.077 -3.5146,0.1514 -2.6426,0.1821 -5.2735,-0.6968 -7.2774,-2.4492 -2.0029,-1.7525 -3.2256,-4.231 -3.3955,-6.8867 -2.8936,-45.0967 -40.5986,-80.4224 -85.8403,-80.4224 -30.3384,0 -57.8575,15.5102 -73.6138,41.4893 -1.5947,2.6298 -4.3115,4.3793 -7.3657,4.7441 -3.0523,0.3623 -6.106,-0.6968 -8.2749,-2.8779 -5.2212,-5.25 -12.1734,-8.1411 -19.5757,-8.1411 -15.2246,0 -27.6108,12.3862 -27.6108,27.6113 0,4.3437 0.9858,8.5068 2.9301,12.374 1.5269,3.0371 1.4063,6.6421 -0.3203,9.5708 -1.7265,2.9282 -4.8227,4.7788 -8.2197,4.9131 -26.8623,1.0605 -47.9048,22.9653 -47.9048,49.8677 0,27.521 22.3027,49.9106 49.7168,49.9106 H 1555 Z"
         id="path78" />
      <path
         fill="#010202"
         d="m 1569.0024,1877.0537 c -2.561,0 -5.1215,-0.9775 -7.0747,-2.9326 -3.9033,-3.9072 -3.8999,-10.2383 0.01,-14.1416 l 61.9034,-61.8408 c 3.9072,-3.9024 10.2387,-3.9004 14.1421,0.01 3.9033,3.9072 3.8999,10.2383 -0.01,14.1416 l -61.9033,61.8408 c -1.9521,1.9502 -4.5097,2.9258 -7.0674,2.9258 z"
         id="path79" />
      <path
         fill="#010202"
         d="m 1630.8745,1877.085 c -2.561,0 -5.1216,-0.9776 -7.0747,-2.9327 l -61.8408,-61.9033 c -3.9033,-3.9072 -3.8999,-10.2383 0.01,-14.1416 3.9077,-3.9023 10.2393,-3.9004 14.1421,0.01 l 61.8408,61.9033 c 3.9033,3.9072 3.8999,10.2383 -0.01,14.1416 -1.9521,1.9502 -4.5098,2.9258 -7.0674,2.9258 z"
         id="path80" />
      <path
         fill="#010202"
         d="m 1649.9541,1846 c 0,0 0,0 0,0 l -100,0.029 c -5.5229,0 -9.998,-4.4971 -9.9951,-10.0195 0,-5.5215 4.4795,-10.0098 10,-10.0098 0,0 0,0 0,0 l 100,0.104 c 5.5229,0 9.998,4.4304 9.9951,9.9529 0,5.5205 -4.48,9.9431 -10,9.9431 z"
         id="path81" />
      <path
         fill="#010202"
         d="m 1599.9287,1896 c 0,0 0,0 0,0 -5.5229,0 -9.998,-4.416 -9.9951,-9.9385 l 0.051,-100.0332 c 0,-5.5215 4.48,-10.0283 10,-10.0283 0,0 0,0 0,0 5.5229,0 9.998,4.5488 9.9951,10.0713 l -0.051,99.9668 c 0,5.5215 -4.48,9.9619 -10,9.9619 z"
         id="path82" />
      <path
         fill="#010202"
         d="m 1707.7109,1832.7344 c -3.4453,0 -6.7968,-1.7813 -8.6533,-4.9736 -2.7773,-4.7735 -1.1592,-10.8946 3.6153,-13.6719 l 60.5058,-35.1992 c 4.7744,-2.7813 10.8955,-1.1592 13.6719,3.6152 2.7773,4.7734 1.1592,10.8945 -3.6152,13.6719 l -60.5059,35.1992 c -1.582,0.9209 -3.3115,1.3584 -5.0186,1.3584 z"
         id="path83" />
      <path
         fill="#010202"
         d="m 1768.707,1831.8301 c -1.6113,0 -3.2451,-0.3906 -4.7617,-1.2129 l -61.5234,-33.3906 c -4.8535,-2.6348 -6.6533,-8.7051 -4.0186,-13.5596 2.6338,-4.8535 8.7031,-6.6523 13.5596,-4.0185 l 61.5234,33.3906 c 4.8535,2.6347 6.6533,8.7051 4.0186,13.5595 -1.8115,3.3379 -5.249,5.2315 -8.7979,5.2315 z"
         id="path84" />
      <path
         fill="#010202"
         d="m 1737.9365,1850 c 0,0 0,0 0,0 -5.5234,0 -9.998,-4.71 -9.9951,-10.2324 l 0.035,-68.7979 c 0,-5.5214 4.4795,-9.9697 10,-9.9697 0,0 0,0 0,0 5.5234,0 9.998,4.3433 9.9951,9.8657 l -0.035,68.9812 c 0,5.5215 -4.4795,10.1531 -10,10.1531 z"
         id="path85" />
    </g>
  </g>
</svg>
