<?xml version="1.0" encoding="UTF-8" standalone="no"?>
<!-- Created with Inkscape (http://www.inkscape.org/) -->

<svg
   width="196mm"
   height="196mm"
   viewBox="0 0 196 196"
   version="1.1"
   id="svg1"
   inkscape:export-filename="wind_rain.svg"
   inkscape:export-xdpi="30.6"
   inkscape:export-ydpi="30.6"
   inkscape:version="1.4.2 (ebf0e940, 2025-05-08)"
   sodipodi:docname="weather_icons.svg"
   xmlns:inkscape="http://www.inkscape.org/namespaces/inkscape"
   xmlns:sodipodi="http://sodipodi.sourceforge.net/DTD/sodipodi-0.dtd"
   xmlns="http://www.w3.org/2000/svg"
   xmlns:svg="http://www.w3.org/2000/svg">
  <sodipodi:namedview
     id="namedview1"
     pagecolor="#ffffff"
     bordercolor="#000000"
     borderopacity="0.25"
     inkscape:showpageshadow="2"
     inkscape:pageopacity="0.0"
     inkscape:pagecheckerboard="0"
     inkscape:deskcolor="#d1d1d1"
     inkscape:document-units="mm"
     inkscape:zoom="0.59"
     inkscape:cx="815.25424"
     inkscape:cy="655.9322"
     inkscape:window-width="1840"
     inkscape:window-height="1201"
     inkscape:window-x="78"
     inkscape:window-y="25"
     inkscape:window-maximized="0"
     inkscape:current-layer="layer1" />
  <defs
     id="defs1" />
  <g
     inkscape:label="Layer 1"
     inkscape:groupmode="layer"
     id="layer1">
    <g
       id="g1"
       transform="translate(-7.039974,-50.58687)"
       style="display:none"
       inkscape:label="rain wind">
      <path
         fill="#010202"
         d="M 176.19675,164.90407 H 51.711195 c -2.163847,0 -3.918237,-1.7544 -3.918237,-3.91825 0,-2.16384 1.75439,-3.91823 3.918237,-3.91823 H 176.19675 c 3.48354,0 6.42646,-2.98116 6.42646,-6.50988 0,-3.58953 -2.83384,-6.50984 -6.31742,-6.50984 -3.45331,0 -6.26306,2.89965 -6.26306,6.46356 0,2.16381 -1.75441,3.91825 -3.91825,3.91825 -2.1638,0 -3.91823,-1.75444 -3.91823,-3.91825 0,-7.88506 6.32505,-14.30003 14.09954,-14.30003 7.80434,0 14.15389,6.43562 14.15389,14.34631 0,7.91073 -6.39814,14.34636 -14.26293,14.34636 z"
         id="path50"
         style="stroke-width:0.391823" />
      <path
         fill="#010202"
         d="m 147.16162,209.01292 c -4.75967,0 -9.20865,-1.85121 -12.52687,-5.21232 -3.29685,-3.33966 -5.11249,-7.79859 -5.11249,-12.55521 0,-2.1638 1.75444,-3.91823 3.91824,-3.91823 2.16386,0 3.91824,1.75443 3.91824,3.91823 0,5.56896 4.30586,9.93105 9.80288,9.93105 5.54599,0 9.8905,-4.35214 9.8905,-9.90769 0,-5.46331 -4.51519,-9.90808 -10.06498,-9.90808 H 41.915601 c -2.163847,0 -3.918238,-1.7544 -3.918238,-3.91825 0,-2.16384 1.754391,-3.91823 3.918238,-3.91823 H 146.98714 c 9.87095,0 17.90145,7.96005 17.90145,17.74456 0,9.78411 -7.95241,17.74417 -17.72697,17.74417 z"
         id="path51"
         style="stroke-width:0.391823" />
      <path
         fill="#010202"
         d="M 104.27835,150.40658 H 61.898613 c -2.163846,0 -3.918238,-1.75439 -3.918238,-3.91823 0,-2.16385 1.754392,-3.91824 3.918238,-3.91824 h 42.379737 c 5.5498,0 10.06497,-4.47267 10.06497,-9.97047 0,-5.49775 -4.43673,-9.97085 -9.89049,-9.97085 -5.497013,0 -9.802881,4.38085 -9.802881,9.97316 0,2.1638 -1.754391,3.91824 -3.918239,3.91824 -2.163806,0 -3.918237,-1.75444 -3.918237,-3.91824 0,-9.82008 7.912999,-17.80964 17.639357,-17.80964 9.77455,0 17.72697,7.98839 17.72697,17.80733 0,9.81895 -8.03051,17.80694 -17.90145,17.80694 z"
         id="path52"
         style="stroke-width:0.391823" />
      <path
         fill="#010202"
         d="m 81.86517,229.92306 c -1.003656,0 -2.006962,-0.38301 -2.771841,-1.14905 -1.529405,-1.53094 -1.528268,-4.01196 0.0039,-5.54102 l 9.812051,-9.8021 c 1.530934,-1.52941 4.012394,-1.52827 5.541016,0.004 1.529405,1.53093 1.528268,4.01196 -0.0039,5.54101 l -9.812051,9.80209 c -0.764919,0.76414 -1.767047,1.14636 -2.769175,1.14636 z"
         id="path53"
         style="stroke-width:0.391823" />
      <path
         fill="#010202"
         d="m 47.776501,207.5891 c -1.003657,0 -2.006569,-0.383 -2.771839,-1.14905 -1.529406,-1.53093 -1.52827,-4.01162 0.0038,-5.54101 l 6.18768,-6.18154 c 1.530933,-1.52944 4.01161,-1.52827 5.541015,0.004 1.529406,1.53093 1.52827,4.0116 -0.0038,5.54101 l -6.187681,6.18156 c -0.764918,0.76414 -1.767047,1.14636 -2.769175,1.14636 z"
         id="path54"
         style="stroke-width:0.391823" />
      <path
         fill="#010202"
         d="m 102.24,207.5891 c -1.00366,0 -2.00656,-0.383 -2.771833,-1.14905 -1.529409,-1.53093 -1.528268,-4.01162 0.0044,-5.54101 l 6.187683,-6.18154 c 1.53093,-1.52944 4.01161,-1.52827 5.54101,0.004 1.52941,1.53093 1.52827,4.0116 -0.004,5.54101 l -6.18768,6.18156 c -0.76492,0.76414 -1.76705,1.14636 -2.76918,1.14636 z"
         id="path55"
         style="stroke-width:0.391823" />
      <path
         fill="#010202"
         d="m 119.08843,222.54231 c -1.00444,0 -2.00884,-0.38377 -2.77451,-1.15133 -1.52787,-1.5325 -1.52446,-4.01313 0.007,-5.5414 l 7.4416,-7.42095 c 1.53246,-1.52788 4.01274,-1.52482 5.54141,0.007 1.52787,1.53246 1.52442,4.01315 -0.007,5.54137 l -7.44158,7.42096 c -0.76489,0.7626 -1.76588,1.14369 -2.76687,1.14369 z"
         id="path56"
         style="stroke-width:0.391823" />
      <path
         fill="#010202"
         d="m 60.706686,221.75868 c -1.003657,0 -2.006961,-0.38301 -2.77184,-1.14907 -1.529407,-1.53094 -1.528269,-4.01161 0.0039,-5.54101 l 20.371781,-20.3511 c 1.530934,-1.52941 4.012353,-1.52827 5.541014,0.004 1.529407,1.53093 1.52827,4.0116 -0.0038,5.54101 L 63.47596,220.61363 c -0.764918,0.76411 -1.767047,1.14636 -2.769175,1.14636 z"
         id="path57"
         style="stroke-width:0.391823" />
      <path
         fill="#010202"
         d="m 131.94707,150.79841 h -3.83023 c -2.16385,0 -3.91825,-1.7544 -3.91825,-3.91824 0,-2.16385 1.7544,-3.91824 3.91825,-3.91824 h 3.76248 c 9.8622,-0.35739 17.57812,-8.15444 17.57812,-17.77708 0,-9.79027 -7.95242,-17.75491 -17.72698,-17.75491 -0.50278,0 -0.89879,0.0104 -1.24623,0.0353 -1.04613,0.0734 -2.06664,-0.27317 -2.85106,-0.95965 -0.78479,-0.68644 -1.26348,-1.65758 -1.33045,-2.69799 -1.03311,-16.106114 -14.49516,-28.722128 -30.647587,-28.722128 -10.833301,0 -20.658751,5.536041 -26.283187,14.808544 -0.624841,1.030461 -1.689348,1.716151 -2.88586,1.858896 -1.193064,0.142019 -2.392279,-0.272828 -3.242106,-1.127668 -1.825977,-1.835497 -4.25458,-2.84644 -6.839324,-2.84644 -5.318694,0 -9.645957,4.32686 -9.645957,9.645204 0,1.516791 0.344375,2.971202 1.023561,4.322682 0.598434,1.1904 0.550984,2.60273 -0.125537,3.74987 -0.676876,1.14754 -1.889844,1.87264 -3.220674,1.92506 -9.520102,0.37577 -16.977763,8.15409 -16.977763,17.70785 0,9.73933 7.91531,17.71511 17.644726,17.77901 h 3.38136 c 2.163848,0 3.917102,1.75631 3.915966,3.92051 0,2.16306 -1.755175,3.91597 -3.918238,3.91597 0,0 0,0 -0.0038,0 h -3.405105 c -14.045198,-0.0926 -25.452873,-11.58369 -25.452873,-25.61549 0,-12.06428 8.252436,-22.16523 19.530378,-24.85593 -0.153086,-0.934021 -0.229962,-1.884898 -0.229962,-2.849532 0,-9.639487 7.842588,-17.481684 17.482432,-17.481684 3.106654,0 6.088198,0.804681 8.708911,2.316496 7.268645,-9.471121 18.400006,-15.009825 30.541567,-15.009825 19.041352,0 35.104202,13.971338 38.061252,32.421107 13.17089,1.018198 23.57753,12.073068 23.57753,25.514858 0,13.89404 -11.07666,25.14407 -25.2175,25.61125 -0.043,0 -0.0862,0.004 -0.12929,0.004 z"
         id="path58"
         style="stroke-width:0.391823"
         inkscape:export-filename="path58.svg"
         inkscape:export-xdpi="30.6"
         inkscape:export-ydpi="30.6" />
    </g>
    <g
       id="g2"
       transform="matrix(1.4809088,0,0,1.4809088,-57.554037,-88.439145)"
       style="display:none"
       inkscape:label="overcast">
      <path
         fill="#010202"
         d="m 73.214652,156.2756 c -10.178965,-0.067 -18.445903,-8.37623 -18.445903,-18.52252 0,-8.81703 6.081929,-16.18713 14.361268,-18.06118 -0.134617,-0.74065 -0.202184,-1.4964 -0.202184,-2.26459 0,-6.94595 5.650947,-12.59689 12.597035,-12.59689 2.307095,0 4.518458,0.61572 6.447797,1.76953 5.286629,-6.991049 13.444015,-11.085373 22.346825,-11.085373 13.91401,0 25.64224,10.249503 27.72312,23.755393 9.63042,0.64881 17.2678,8.69096 17.2678,18.48311 0,10.11295 -8.2274,18.4215 -18.34035,18.52109 z m 8.310216,-46.15352 c -4.028178,0 -7.305368,3.27708 -7.305368,7.30525 0,1.14914 0.260836,2.25076 0.775276,3.27396 0.403982,0.80356 0.372071,1.75739 -0.08475,2.53227 -0.456819,0.77476 -1.27602,1.26439 -2.174804,1.29993 -7.107319,0.28059 -12.674809,6.08734 -12.674809,13.21959 0,7.24762 5.908813,13.18305 13.171675,13.23086 h 63.711872 c 7.19775,-0.071 13.07478,-6.00583 13.07478,-13.22954 0,-7.2971 -5.93658,-13.23369 -13.23355,-13.23369 -0.27195,0 -0.56754,0.0116 -0.93018,0.0369 -0.70202,0.049 -1.39539,-0.18449 -1.92533,-0.64801 -0.52995,-0.46366 -0.85331,-1.11946 -0.8984,-1.82211 -0.76546,-11.93273 -10.74159,-21.27997 -22.71179,-21.27997 -8.02742,0 -15.3085,4.10336 -19.476979,10.97646 -0.421939,0.69583 -1.140756,1.15872 -1.948846,1.25521 -0.807702,0.0954 -1.615535,-0.18434 -2.189401,-0.76144 -1.381699,-1.38933 -3.221119,-2.1544 -5.179398,-2.1544 z"
         id="path59"
         style="stroke-width:0.264583" />
    </g>
    <g
       id="g96"
       transform="matrix(0.39182378,0,0,0.39182378,-342.80176,-322.81874)"
       inkscape:label="clear sky day"
       style="display:none">
      <path
         fill="#010202"
         d="m 1125.0977,1174.0977 c -55.1402,0 -100,-44.8599 -100,-100 0,-55.1402 44.8598,-100.00004 100,-100.00004 55.1401,0 100,44.85984 100,100.00004 0,55.1401 -44.8599,100 -100,100 z m 0,-180.00004 c -44.1123,0 -80,35.88774 -80,80.00004 0,44.1123 35.8877,80 80,80 44.1123,0 80,-35.8877 80,-80 0,-44.1123 -35.8877,-80.00004 -80,-80.00004 z"
         id="path1" />
      <path
         fill="#010202"
         d="m 1125,958 c -5.5229,0 -10,-4.47705 -10,-10 v -54 c 0,-5.52295 4.4771,-10 10,-10 5.523,0 10,4.47705 10,10 v 54 c 0,5.52295 -4.477,10 -10,10 z"
         id="path2" />
      <path
         fill="#010202"
         d="m 1125,1264 c -5.5229,0 -10,-4.477 -10,-10 v -54 c 0,-5.5229 4.4771,-10 10,-10 5.523,0 10,4.4771 10,10 v 54 c 0,5.523 -4.477,10 -10,10 z"
         id="path3" />
      <path
         fill="#010202"
         d="m 999,1084 h -54 c -5.52295,0 -10,-4.477 -10,-10 0,-5.5229 4.47705,-10 10,-10 h 54 c 5.523,0 10,4.4771 10,10 0,5.523 -4.477,10 -10,10 z"
         id="path4" />
      <path
         fill="#010202"
         d="m 1305,1084 h -54 c -5.5229,0 -10,-4.477 -10,-10 0,-5.5229 4.4771,-10 10,-10 h 54 c 5.523,0 10,4.4771 10,10 0,5.523 -4.477,10 -10,10 z"
         id="path5" />
      <path
         fill="#010202"
         d="m 1213.542,995.45801 c -2.5591,0 -5.1187,-0.97607 -7.0713,-2.92871 -3.9048,-3.90527 -3.9048,-10.2373 0,-14.14258 l 38.7373,-38.7373 c 3.9053,-3.90527 10.2373,-3.90527 14.1426,0 3.9048,3.90527 3.9048,10.2373 0,14.14258 l -38.7373,38.7373 c -1.9527,1.95263 -4.5122,2.92871 -7.0713,2.92871 z"
         id="path6" />
      <path
         fill="#010202"
         d="m 997.7207,1211.2793 c -2.55908,0 -5.11865,-0.9761 -7.07129,-2.9287 -3.90479,-3.9053 -3.90479,-10.2373 0,-14.1426 l 38.73729,-38.7373 c 3.9053,-3.9053 10.2373,-3.9053 14.1426,0 3.9048,3.9053 3.9048,10.2373 0,14.1426 l -38.7373,38.7373 c -1.9526,1.9526 -4.5122,2.9287 -7.0713,2.9287 z"
         id="path7" />
      <path
         fill="#010202"
         d="m 1036.458,995.45801 c -2.5591,0 -5.1186,-0.97607 -7.0713,-2.92871 L 990.64942,953.792 c -3.90479,-3.90527 -3.90479,-10.2373 0,-14.14258 3.90527,-3.90527 10.23728,-3.90527 14.14258,0 l 38.7373,38.7373 c 3.9048,3.90527 3.9048,10.2373 0,14.14258 -1.9526,1.95263 -4.5122,2.92871 -7.0713,2.92871 z"
         id="path8" />
      <path
         fill="#010202"
         d="m 1252.2793,1211.2793 c -2.5591,0 -5.1186,-0.9761 -7.0713,-2.9287 l -38.7373,-38.7373 c -3.9048,-3.9053 -3.9048,-10.2373 0,-14.1426 3.9053,-3.9053 10.2373,-3.9053 14.1426,0 l 38.7373,38.7373 c 3.9048,3.9053 3.9048,10.2373 0,14.1426 -1.9526,1.9526 -4.5122,2.9287 -7.0713,2.9287 z"
         id="path9" />
    </g>
    <g
       id="g97"
       transform="matrix(0.39182378,0,0,0.39182378,-554.82739,-318.9005)"
       inkscape:label="clouds day"
       style="display:none">
      <path
         fill="#010202"
         d="m 1762.7979,1124.0005 c -2.9083,0 -5.792,-1.2627 -7.7686,-3.6968 -3.4814,-4.2871 -2.8281,-10.5849 1.459,-14.0664 18.8174,-15.2808 29.6094,-37.9302 29.6094,-62.1396 0,-44.11235 -35.8877,-80.00005 -80,-80.00005 -40.8033,0 -74.981,30.52832 -79.5015,71.01125 -0.6128,5.4888 -5.5571,9.4389 -11.0478,8.8291 -5.4883,-0.6133 -9.4415,-5.5596 -8.8282,-11.0484 5.6519,-50.61959 48.3745,-88.79195 99.3775,-88.79195 55.1406,0 100,44.85986 100,100.00005 0,30.2612 -13.4864,58.5693 -37.002,77.665 -1.8535,1.5054 -4.083,2.2378 -6.2978,2.2378 z"
         id="path10" />
      <path
         fill="#010202"
         d="m 1706,928 c -5.5225,0 -10,-4.47705 -10,-10 v -54 c 0,-5.52295 4.4775,-10 10,-10 5.5225,0 10,4.47705 10,10 v 54 c 0,5.52295 -4.4775,10 -10,10 z"
         id="path11" />
      <path
         fill="#010202"
         d="m 1580,1054 h -54 c -5.5229,0 -10,-4.477 -10,-10 0,-5.5229 4.4771,-10 10,-10 h 54 c 5.523,0 10,4.4771 10,10 0,5.523 -4.477,10 -10,10 z"
         id="path12" />
      <path
         fill="#010202"
         d="m 1886,1054 h -54 c -5.5225,0 -10,-4.477 -10,-10 0,-5.5229 4.4775,-10 10,-10 h 54 c 5.5225,0 10,4.4771 10,10 0,5.523 -4.4775,10 -10,10 z"
         id="path13" />
      <path
         fill="#010202"
         d="m 1794.542,965.45801 c -2.5596,0 -5.1182,-0.97607 -7.0713,-2.92871 -3.9053,-3.90527 -3.9053,-10.2373 0,-14.14258 l 38.7373,-38.7373 c 3.9062,-3.90527 10.2363,-3.90527 14.1426,0 3.9052,3.90527 3.9052,10.2373 0,14.14258 l -38.7373,38.7373 c -1.9531,1.95263 -4.5117,2.92871 -7.0713,2.92871 z"
         id="path14" />
      <path
         fill="#010202"
         d="m 1617.458,965.45801 c -2.5591,0 -5.1186,-0.97607 -7.0713,-2.92871 l -38.7373,-38.7373 c -3.9048,-3.90527 -3.9048,-10.2373 0,-14.14258 3.9053,-3.90527 10.2373,-3.90527 14.1426,0 l 38.7373,38.7373 c 3.9048,3.90527 3.9048,10.2373 0,14.14258 -1.9526,1.95263 -4.5122,2.92871 -7.0713,2.92871 z"
         id="path15" />
      <path
         fill="#010202"
         d="m 1833.2793,1181.2793 c -2.5596,0 -5.1182,-0.9761 -7.0713,-2.9287 l -38.7373,-38.7373 c -3.9053,-3.9053 -3.9053,-10.2373 0,-14.1426 3.9063,-3.9053 10.2363,-3.9053 14.1426,0 l 38.7373,38.7373 c 3.9053,3.9053 3.9053,10.2373 0,14.1426 -1.9531,1.9526 -4.5117,2.9287 -7.0713,2.9287 z"
         id="path16" />
      <path
         fill="#010202"
         d="m 1505.9668,1274 c -38.4717,-0.2534 -69.7168,-31.6582 -69.7168,-70.0064 0,-33.3242 22.9868,-61.1796 54.2788,-68.2627 -0.5088,-2.7993 -0.7641,-5.6557 -0.7641,-8.559 0,-26.2525 21.3579,-47.6104 47.6108,-47.6104 8.7197,0 17.0776,2.3272 24.3696,6.688 19.981,-26.4228 50.812,-41.8974 84.4605,-41.8974 52.5884,0 96.9155,38.7382 104.7807,89.7841 36.3985,2.4522 65.2637,32.8477 65.2637,69.8575 0,38.2221 -31.0957,69.6245 -69.3184,70.0009 z m 31.4087,-174.4385 c -15.2246,0 -27.6109,12.3858 -27.6109,27.6104 0,4.3432 0.9859,8.5068 2.9302,12.374 1.5269,3.0371 1.4063,6.6421 -0.3203,9.5708 -1.7265,2.9282 -4.8227,4.7788 -8.2197,4.9131 -26.8623,1.0605 -47.9048,23.0073 -47.9048,49.9638 0,27.3926 22.3325,49.8257 49.7827,50.0064 h 240.8003 c 27.2041,-0.2685 49.417,-22.6992 49.417,-50.0014 0,-27.5796 -22.4375,-50.0171 -50.0166,-50.0171 -1.0274,0 -2.1445,0.044 -3.5147,0.1396 -2.6464,0.1812 -5.2744,-0.6963 -7.2773,-2.4492 -2.0029,-1.7524 -3.2256,-4.2305 -3.3955,-6.8867 -2.8936,-45.1001 -40.5986,-80.4282 -85.8403,-80.4282 -30.3399,0 -57.8589,15.5088 -73.6138,41.4858 -1.5947,2.6299 -4.3115,4.3794 -7.3657,4.7441 -3.0537,0.3604 -6.106,-0.6967 -8.2749,-2.8779 -5.2222,-5.251 -12.1743,-8.1426 -19.5757,-8.1426 z"
         id="path17" />
    </g>
    <g
       id="g99"
       transform="matrix(0.39182378,0,0,0.39182378,-775.41538,-321.6625)"
       inkscape:label="cluds night"
       style="display:none">
      <g
         id="g98">
        <path
           fill="#010202"
           d="m 2076.9668,1252 c -38.4717,-0.2534 -69.7168,-31.6582 -69.7168,-70.0064 0,-33.3242 22.9863,-61.1796 54.2793,-68.2622 -0.5088,-2.7998 -0.7646,-5.6567 -0.7646,-8.5595 0,-26.2525 21.3584,-47.6104 47.6103,-47.6104 8.7207,0 17.0781,2.3267 24.3701,6.688 19.9815,-26.4228 50.8125,-41.8975 84.46,-41.8975 52.5879,0 96.916,38.7383 104.7812,89.7842 36.3985,2.4522 65.2637,32.8477 65.2637,69.8574 0,38.2222 -31.0957,69.6246 -69.3184,70.001 z m 31.4082,-174.4385 c -15.2246,0 -27.6103,12.3858 -27.6103,27.6104 0,4.3427 0.9863,8.5058 2.9306,12.374 1.5264,3.0371 1.4063,6.6421 -0.3203,9.5708 -1.7266,2.9282 -4.8232,4.7788 -8.2197,4.9131 -26.8623,1.0605 -47.9053,23.0073 -47.9053,49.9638 0,27.3926 22.332,49.8257 49.7822,50.0064 h 240.8008 c 27.2041,-0.2685 49.417,-22.6992 49.417,-50.0014 0,-27.5796 -22.4375,-50.0171 -50.0166,-50.0171 -1.0273,0 -2.1445,0.044 -3.5146,0.1396 -2.6446,0.1826 -5.2745,-0.6968 -7.2774,-2.4492 -2.0029,-1.7524 -3.2256,-4.2305 -3.3955,-6.8867 -2.8935,-45.1001 -40.5996,-80.4282 -85.8408,-80.4282 -30.3389,0 -57.8584,15.5088 -73.6143,41.4863 -1.5947,2.6299 -4.3115,4.3794 -7.3652,4.7436 -3.0547,0.3628 -6.1055,-0.6967 -8.2754,-2.8779 -5.2217,-5.251 -12.1738,-8.1426 -19.5752,-8.1426 z"
           id="path30" />
        <path
           fill="#010202"
           d="m 2376.2402,1127.1675 c -4.5332,0 -8.6386,-3.1035 -9.7246,-7.7075 -1.2676,-5.3755 2.0625,-10.7603 7.4385,-12.0279 18.3379,-4.3242 34.9551,-13.7363 48.0859,-27.0385 -22.9423,-5.4541 -43.8486,-17.5982 -60.1504,-35.1827 -20.621,-22.2441 -31.9775,-51.20846 -31.9775,-81.55758 0,-18.6582 4.249,-36.75342 12.4023,-53.19141 -23.0048,1.95312 -44.4706,11.72461 -61.1806,28.00537 -18.7422,18.25977 -29.4609,42.69678 -30.1826,68.80962 -0.1533,5.521 -4.7383,9.9106 -10.2725,9.7197 -5.5205,-0.1524 -9.8721,-4.7515 -9.7197,-10.2725 0.8662,-31.34275 13.7285,-60.67088 36.2178,-82.58201 22.5322,-21.95361 52.2705,-34.04395 83.7353,-34.04395 3.206,0 6.4902,0.1333 9.7588,0.39648 3.5771,0.2876 6.7256,2.47021 8.251,5.71875 1.5244,3.24854 1.1914,7.06494 -0.8721,10.00049 -11.8662,16.87744 -18.1377,36.73926 -18.1377,57.43945 0,25.29102 9.4629,49.42629 26.6445,67.96049 17.0908,18.4355 40.2461,29.6963 65.2022,31.7075 3.5761,0.2885 6.7246,2.4712 8.249,5.7192 1.5244,3.2486 1.1914,7.065 -0.8721,10 -16.9638,24.1275 -42.0342,41.1236 -70.5918,47.8574 -0.7714,0.1822 -1.5439,0.2696 -2.3037,0.2696 z"
           id="path31" />
      </g>
    </g>
    <g
       id="g100"
       transform="matrix(0.39182378,0,0,0.39182378,-989.26582,-323.94107)"
       inkscape:label="clouds day rain"
       style="display:none">
      <path
         fill="#010202"
         d="m 2868.5322,1073.5005 c -2.5156,0 -5.0263,-0.9927 -6.8945,-2.9619 -3.6104,-3.8067 -3.4522,-9.8194 0.3545,-13.4302 14.4902,-13.7456 22.4707,-32.3105 22.4707,-52.2749 0,-39.72217 -32.3164,-72.03809 -72.0381,-72.03809 -34.8887,0 -64.7012,24.87305 -70.8887,59.14258 -0.9326,5.16211 -5.8769,8.59131 -11.0361,7.66064 -5.1641,-0.93213 -8.5937,-5.87354 -7.6611,-11.03662 7.8213,-43.32275 45.498,-74.7666 89.5859,-74.7666 50.1983,0 91.0381,40.83936 91.0381,91.03809 0,25.2295 -10.084,48.6899 -28.3945,66.0591 -1.8369,1.7431 -4.1895,2.6079 -6.5362,2.6079 z"
         id="path18" />
      <path
         fill="#010202"
         d="m 2784.2685,905.82764 c -4.3701,0 -8.3037,-3.03271 -9.2724,-7.47705 l -10.0186,-45.91992 c -1.1191,-5.12598 2.1299,-10.18799 7.2559,-11.30664 5.1357,-1.11963 10.1895,2.13135 11.3066,7.25684 l 10.0186,45.91992 c 1.1191,5.12598 -2.1299,10.18799 -7.2559,11.30664 -0.6826,0.14892 -1.3642,0.22021 -2.0342,0.22021 z"
         id="path19" />
      <path
         fill="#010202"
         d="m 2923.9004,994.60498 c -4.3701,0 -8.3037,-3.03271 -9.2725,-7.47705 -1.1191,-5.12598 2.1299,-10.18799 7.2559,-11.30664 l 48.8506,-10.65771 c 5.1367,-1.11963 10.1894,2.13135 11.3066,7.25684 1.1192,5.12598 -2.1299,10.18799 -7.2558,11.30664 l -48.8506,10.65771 c -0.6827,0.14892 -1.3643,0.22021 -2.0342,0.22021 z"
         id="path20" />
      <path
         fill="#010202"
         d="m 2872.7725,921.85742 c -1.7569,0 -3.5342,-0.48633 -5.1231,-1.50586 -4.415,-2.83398 -5.6973,-8.71094 -2.8633,-13.12646 l 26.8086,-41.76904 c 2.834,-4.41553 8.71,-5.69727 13.127,-2.86377 4.415,2.83398 5.6972,8.71094 2.8633,13.12646 l -26.8086,41.76904 c -1.8145,2.82715 -4.877,4.36963 -8.0039,4.36963 z"
         id="path21" />
      <path
         fill="#010202"
         d="m 2716.0254,956.05469 c -1.7569,0 -3.5342,-0.48633 -5.1221,-1.50586 l -41.7695,-26.80811 c -4.416,-2.83398 -5.6983,-8.71094 -2.8643,-13.12646 2.834,-4.41552 8.711,-5.69727 13.126,-2.86377 l 41.7695,26.80811 c 4.4161,2.83398 5.6983,8.71094 2.8643,13.12646 -1.8145,2.82715 -4.877,4.36963 -8.0039,4.36963 z"
         id="path22" />
      <path
         fill="#010202"
         d="m 2947.7617,1105.6265 c -1.7568,0 -3.5342,-0.4864 -5.123,-1.5059 l -41.7686,-26.8081 c -4.415,-2.834 -5.6972,-8.7109 -2.8633,-13.1265 2.834,-4.4155 8.71,-5.6987 13.127,-2.8637 l 41.7685,26.8081 c 4.4151,2.834 5.6973,8.7109 2.8633,13.1264 -1.8144,2.8272 -4.8769,4.3697 -8.0039,4.3697 z"
         id="path23" />
      <path
         fill="#010202"
         d="m 2631.1104,1213.5606 c -35.0987,-0.231 -63.6026,-28.8804 -63.6026,-63.8648 0,-30.2554 20.7705,-55.5693 49.1094,-62.1797 -0.417,-2.4292 -0.626,-4.9048 -0.626,-7.4189 0,-24.0269 19.5469,-43.5743 43.5742,-43.5743 7.8457,0 15.3721,2.0586 21.9649,5.9209 18.1933,-23.8579 46.1426,-37.8203 76.6338,-37.8203 47.7441,0 88.0068,35.0796 95.3095,81.3692 33.0411,2.4067 59.1875,30.0586 59.1875,63.7031 0,34.8686 -28.3681,63.5161 -63.2363,63.8599 z m 28.455,-158.0376 c -13.5498,0 -24.5742,11.0239 -24.5742,24.5742 0,3.8662 0.877,7.5713 2.6074,11.0117 1.4512,2.8857 1.3369,6.3105 -0.3037,9.0928 -1.6396,2.7822 -4.581,4.5405 -7.8086,4.6679 -24.1006,0.9517 -42.9785,20.6416 -42.9785,44.8262 0,24.5762 20.0371,44.7026 44.665,44.8648 h 218.1582 c 24.4014,-0.2408 44.3301,-20.3653 44.3301,-44.8604 0,-24.7431 -20.1308,-44.8735 -44.874,-44.8735 -0.9258,0 -1.9277,0.039 -3.1553,0.1245 -2.5302,0.1797 -5.0107,-0.6631 -6.9121,-2.3272 -1.9033,-1.6645 -3.0635,-4.019 -3.2256,-6.542 -2.6064,-40.6284 -36.5732,-72.4541 -77.33,-72.4541 -27.3311,0 -52.1231,13.9717 -66.3165,37.3741 -1.5156,2.498 -4.0957,4.1601 -6.997,4.5063 -2.9033,0.3447 -5.8018,-0.6626 -7.8614,-2.7334 -4.6484,-4.6738 -10.8369,-7.2475 -17.4238,-7.2475 z"
         id="path24" />
      <path
         fill="#010202"
         d="m 2714.4522,1312.8218 c -2.4327,0 -4.8653,-0.9287 -6.7207,-2.7857 -3.7081,-3.7119 -3.7051,-9.727 0.01,-13.435 l 22.6875,-22.6646 c 3.7119,-3.7075 9.7266,-3.705 13.4346,0.01 3.708,3.7119 3.705,9.727 -0.01,13.435 l -22.6875,22.6646 c -1.8545,1.853 -4.2842,2.7793 -6.7138,2.7793 z"
         id="path25" />
      <path
         fill="#010202"
         d="m 2635.6318,1261.1811 c -2.4326,0 -4.8652,-0.9287 -6.7207,-2.7861 -3.708,-3.7119 -3.705,-9.7265 0.01,-13.435 l 14.3076,-14.293 c 3.7109,-3.707 9.7256,-3.7046 13.4346,0.01 3.708,3.7119 3.7051,9.7266 -0.01,13.4351 l -14.3076,14.2929 c -1.8545,1.8526 -4.2842,2.7788 -6.7139,2.7788 z"
         id="path26" />
      <path
         fill="#010202"
         d="m 2761.5635,1261.1811 c -2.4326,0 -4.8652,-0.9282 -6.7207,-2.7856 -3.708,-3.7119 -3.7051,-9.727 0.01,-13.4351 l 14.3067,-14.2929 c 3.7119,-3.7071 9.7265,-3.7056 13.4345,0.01 3.708,3.712 3.7051,9.7271 -0.01,13.4351 l -14.3067,14.293 c -1.8544,1.8525 -4.2841,2.7792 -6.7138,2.7792 z"
         id="path27" />
      <path
         fill="#010202"
         d="m 2802.333,1283.9785 c -2.4336,0 -4.8662,-0.9292 -6.7217,-2.7866 -3.708,-3.7124 -3.7041,-9.7275 0.01,-13.4351 l 37.1377,-37.0903 c 3.7119,-3.708 9.7266,-3.7036 13.4346,0.01 3.708,3.7124 3.7041,9.7275 -0.01,13.4351 l -37.1377,37.0903 c -1.8545,1.8525 -4.2832,2.7783 -6.7129,2.7783 z"
         id="path28" />
      <path
         fill="#010202"
         d="m 2665.5293,1293.9443 c -2.4326,0 -4.8652,-0.9287 -6.7207,-2.7856 -3.708,-3.7119 -3.7051,-9.727 0.01,-13.4351 l 47.1036,-47.0561 c 3.7119,-3.708 9.7265,-3.7046 13.4345,0.01 3.708,3.712 3.7051,9.7271 -0.01,13.4351 l -47.1035,47.0562 c -1.8545,1.853 -4.2842,2.7792 -6.7139,2.7792 z"
         id="path29" />
    </g>
    <g
       id="g101"
       transform="matrix(0.39182378,0,0,0.39182378,-135.13515,-569.17416)"
       inkscape:label="thunderstorm"
       style="display:none">
      <path
         fill="#010202"
         d="m 715.57959,1764.0908 h -10.58398 c -5.52246,0 -9.99805,-4.4805 -9.99609,-10.0039 0.002,-5.5215 4.479,-9.9961 10,-9.9961 0.001,0 0.002,0 0.004,0 h 10.53174 C 742.81494,1743.7959 765,1721.3975 765,1694.1377 c 0,-27.5659 -22.4375,-49.9927 -50.0166,-49.9927 -1.17871,0 -2.43848,0.077 -3.51562,0.1514 -2.65332,0.1865 -5.27393,-0.6968 -7.27686,-2.4492 -2.00293,-1.7525 -3.2251,-4.231 -3.39551,-6.8867 -2.89258,-45.0967 -40.59814,-80.4224 -85.83984,-80.4224 -30.33838,0 -57.85742,15.5102 -73.61377,41.4893 -1.59473,2.6298 -4.31152,4.3793 -7.36572,4.7441 -3.05273,0.3599 -6.10596,-0.6968 -8.2749,-2.8779 -5.22119,-5.25 -12.17334,-8.1411 -19.57568,-8.1411 -15.22461,0 -27.61084,12.3862 -27.61084,27.6113 0,4.3437 0.98584,8.5068 2.93018,12.374 1.52686,3.0371 1.40625,6.6421 -0.32031,9.5708 -1.72656,2.9282 -4.82275,4.7788 -8.21973,4.9131 C 446.04248,1645.2822 425,1667.187 425,1694.0894 425,1721.6104 447.30273,1744 474.7168,1744 H 485 c 5.52295,0 10,4.4775 10,10 0,5.5225 -4.47705,10 -10,10 H 474.7168 C 436.2749,1764 405,1732.6387 405,1694.0894 c 0,-33.2764 22.98633,-61.0938 54.27881,-68.168 -0.5083,-2.7988 -0.76416,-5.6553 -0.76416,-8.5576 0,-26.253 21.35791,-47.6114 47.61084,-47.6114 8.7207,0 17.07764,2.3262 24.36914,6.6871 19.98242,-26.4248 50.81396,-41.9014 84.46094,-41.9014 52.58496,0 96.90967,38.7285 104.77832,89.7661 36.40185,2.4482 65.26611,32.834 65.26611,69.8335 0,38.1963 -31.09619,69.5772 -69.31836,69.9522 -0.0337,9e-4 -0.0679,9e-4 -0.10205,9e-4 z"
         id="path60" />
      <path
         fill="#010202"
         d="m 501.0332,1858.085 c -2.55713,0 -5.11377,-0.9746 -7.06592,-2.9239 -3.9082,-3.9023 -3.9126,-10.2344 -0.0103,-14.1425 L 536.91504,1798 H 511.0332 c -4.0918,0 -7.77051,-2.4922 -9.2876,-6.293 -1.5166,-3.7998 -0.56543,-8.1406 2.40137,-10.958 l 63,-59.8291 c 4.00488,-3.8027 10.33398,-3.6416 14.13721,0.3653 3.80322,4.0039 3.64014,10.3339 -0.36475,14.1367 L 536.08496,1778 h 24.94824 c 4.04346,0 7.68896,2.4346 9.2373,6.1699 1.54883,3.7354 0.6958,8.0352 -2.16113,10.8965 l -60,60.085 c -1.95312,1.9551 -4.51464,2.9336 -7.07617,2.9336 z"
         id="path61" />
      <path
         fill="#010202"
         d="m 602.95801,1822.9395 c -2.56104,0 -5.12158,-0.9776 -7.07471,-2.9327 -3.90332,-3.9072 -3.8999,-10.2382 0.007,-14.1416 L 638.79883,1763 h -25.84082 c -4.0874,0 -7.76318,-2.4873 -9.28271,-6.2812 -1.52002,-3.794 -0.57812,-8.1319 2.37891,-10.9532 l 63,-60.1211 c 3.99561,-3.8125 10.3252,-3.6655 14.13818,0.3306 3.81299,3.9956 3.66504,10.3252 -0.33057,14.1382 L 637.92139,1743 h 25.03662 c 4.04541,0 7.69238,2.4375 9.23975,6.1758 1.54736,3.7373 0.68994,8.04 -2.17236,10.8984 l -60,59.9395 c -1.95216,1.9502 -4.50978,2.9258 -7.06739,2.9258 z"
         id="path62" />
      <path
         fill="#010202"
         d="m 551.95801,1870.9395 c -2.56104,0 -5.12158,-0.9776 -7.07471,-2.9327 -3.90332,-3.9072 -3.8999,-10.2392 0.007,-14.1416 l 25.04199,-25.0166 c 3.90723,-3.9033 10.23877,-3.9004 14.14209,0.01 3.90332,3.9072 3.8999,10.2392 -0.007,14.1416 l -25.04199,25.0166 c -1.95215,1.9502 -4.51025,2.9258 -7.06738,2.9258 z"
         id="path63" />
      <path
         fill="#010202"
         d="m 460.95801,1837.9395 c -2.56104,0 -5.12158,-0.9776 -7.07471,-2.9327 -3.90332,-3.9072 -3.8999,-10.2382 0.007,-14.1416 l 15.79199,-15.7763 c 3.90723,-3.9024 10.23877,-3.8994 14.14209,0.01 3.90332,3.9072 3.8999,10.2383 -0.007,14.1416 l -15.79199,15.7764 c -1.95215,1.9502 -4.50977,2.9258 -7.06738,2.9258 z"
         id="path64" />
      <path
         fill="#010202"
         d="m 639.95801,1851.9395 c -2.56104,0 -5.12158,-0.9776 -7.07471,-2.9327 -3.90332,-3.9072 -3.8999,-10.2382 0.007,-14.1416 l 51.99219,-51.9394 c 3.90723,-3.9033 10.23877,-3.9004 14.14209,0.01 3.90332,3.9073 3.8999,10.2383 -0.007,14.1416 l -51.99219,51.9395 c -1.95215,1.9502 -4.51025,2.9258 -7.06738,2.9258 z"
         id="path65" />
    </g>
    <g
       id="g102"
       transform="matrix(0.39182378,0,0,0.39182378,-342.80176,-569.17416)"
       inkscape:label="rain"
       style="display:none">
      <path
         fill="#010202"
         d="m 1245.5796,1764.0908 h -10.584 v 0 L 1004.7168,1764 C 966.2749,1764 935,1732.6387 935,1694.0894 c 0,-33.2764 22.98633,-61.0938 54.27881,-68.168 -0.5083,-2.7988 -0.76416,-5.6553 -0.76416,-8.5576 0,-26.253 21.35795,-47.6114 47.61085,-47.6114 8.7207,0 17.0776,2.3262 24.3691,6.6871 19.9825,-26.4248 50.814,-41.9014 84.461,-41.9014 52.5849,0 96.9096,38.7285 104.7783,89.7661 36.4019,2.4482 65.2661,32.834 65.2661,69.8335 0,38.1963 -31.0962,69.5771 -69.3184,69.9521 -0.034,10e-4 -0.068,10e-4 -0.102,10e-4 z m -10.5762,-20.0039 h 10.5318 c 27.2797,-0.2949 49.4648,-22.6933 49.4648,-49.9531 0,-27.5659 -22.4375,-49.9927 -50.0166,-49.9927 -1.1787,0 -2.4385,0.077 -3.5156,0.1514 -2.6514,0.1865 -5.2735,-0.6968 -7.2769,-2.4492 -2.0029,-1.7525 -3.2251,-4.231 -3.3955,-6.8867 -2.8926,-45.0967 -40.5981,-80.4224 -85.8398,-80.4224 -30.3384,0 -57.8574,15.5102 -73.6138,41.4893 -1.5947,2.6298 -4.3115,4.3793 -7.3657,4.7441 -3.0552,0.3599 -6.106,-0.6968 -8.2749,-2.8779 -5.2212,-5.25 -12.1734,-8.1411 -19.5757,-8.1411 -15.2246,0 -27.6108,12.3862 -27.6108,27.6113 0,4.3437 0.9858,8.5068 2.9301,12.374 1.5269,3.0371 1.4063,6.6421 -0.3203,9.5708 -1.7265,2.9282 -4.8227,4.7788 -8.2197,4.9131 C 976.04248,1645.2822 955,1667.187 955,1694.0894 955,1721.6104 977.30273,1744 1004.7168,1744 H 1015 Z"
         id="path72" />
      <path
         fill="#010202"
         d="m 1089.958,1870.9395 c -2.561,0 -5.1216,-0.9776 -7.0747,-2.9327 -3.9033,-3.9072 -3.8999,-10.2392 0.01,-14.1416 l 25.042,-25.0166 c 3.9077,-3.9033 10.2393,-3.9004 14.1421,0.01 3.9033,3.9072 3.8999,10.2392 -0.01,14.1416 l -25.042,25.0166 c -1.9522,1.9502 -4.5103,2.9258 -7.0674,2.9258 z"
         id="path73" />
      <path
         fill="#010202"
         d="m 1002.958,1813.9395 c -2.561,0 -5.12157,-0.9776 -7.0747,-2.9327 -3.90332,-3.9072 -3.8999,-10.2382 0.007,-14.1416 l 15.792,-15.7763 c 3.9072,-3.9034 10.2388,-3.9004 14.1421,0.01 3.9033,3.9072 3.8999,10.2383 -0.01,14.1416 l -15.792,15.7764 c -1.9522,1.9502 -4.5098,2.9258 -7.0674,2.9258 z"
         id="path74" />
      <path
         fill="#010202"
         d="m 1141.958,1813.9395 c -2.561,0 -5.1216,-0.9776 -7.0747,-2.9327 -3.9033,-3.9072 -3.8999,-10.2382 0.01,-14.1416 l 15.792,-15.7763 c 3.9072,-3.9034 10.2388,-3.9004 14.1421,0.01 3.9033,3.9072 3.8999,10.2383 -0.01,14.1416 l -15.792,15.7764 c -1.9522,1.9502 -4.5098,2.9258 -7.0674,2.9258 z"
         id="path75" />
      <path
         fill="#010202"
         d="m 1186.958,1839.1025 c -2.5615,0 -5.1225,-0.9775 -7.0757,-2.9335 -3.9028,-3.9073 -3.8984,-10.2393 0.01,-14.1416 l 40.9922,-40.9395 c 3.9077,-3.9033 10.2393,-3.8994 14.1421,0.01 3.9028,3.9072 3.8984,10.2393 -0.01,14.1416 l -40.9922,40.9394 c -1.9521,1.9502 -4.5093,2.9248 -7.0664,2.9248 z"
         id="path76" />
      <path
         fill="#010202"
         d="m 1035.958,1850.1025 c -2.561,0 -5.1216,-0.9775 -7.0747,-2.9326 -3.9033,-3.9072 -3.8999,-10.2383 0.01,-14.1416 l 51.9922,-51.9394 c 3.9072,-3.9033 10.2388,-3.9004 14.1421,0.01 3.9033,3.9072 3.8999,10.2383 -0.01,14.1416 l -51.9922,51.9395 c -1.9522,1.9502 -4.5103,2.9257 -7.0674,2.9257 z"
         id="path77" />
    </g>
    <g
       id="g103"
       transform="matrix(0.39182378,0,0,0.39182378,-554.38658,-569.77314)"
       inkscape:label="snow"
       style="display:none">
      <path
         fill="#010202"
         d="m 1785.5791,1742.0908 h -10.584 v 0 L 1544.7168,1742 c -38.4419,0 -69.7168,-31.3613 -69.7168,-69.9106 0,-33.2764 22.9863,-61.0938 54.2788,-68.168 -0.5083,-2.7988 -0.7641,-5.6553 -0.7641,-8.5576 0,-26.253 21.3579,-47.6114 47.6108,-47.6114 8.7207,0 17.0776,2.3262 24.3691,6.6871 19.9825,-26.4248 50.814,-41.9014 84.461,-41.9014 52.5844,0 96.9096,38.7285 104.7788,89.7661 36.4023,2.4482 65.2656,32.834 65.2656,69.8335 0,38.1963 -31.0967,69.5771 -69.3184,69.9521 -0.034,10e-4 -0.068,10e-4 -0.1025,10e-4 z m -10.5762,-20.0039 h 10.5313 c 27.2803,-0.2949 49.4658,-22.6938 49.4658,-49.9531 0,-27.5659 -22.4375,-49.9927 -50.0166,-49.9927 -1.1787,0 -2.4385,0.077 -3.5146,0.1514 -2.6426,0.1821 -5.2735,-0.6968 -7.2774,-2.4492 -2.0029,-1.7525 -3.2256,-4.231 -3.3955,-6.8867 -2.8936,-45.0967 -40.5986,-80.4224 -85.8403,-80.4224 -30.3384,0 -57.8575,15.5102 -73.6138,41.4893 -1.5947,2.6298 -4.3115,4.3793 -7.3657,4.7441 -3.0523,0.3623 -6.106,-0.6968 -8.2749,-2.8779 -5.2212,-5.25 -12.1734,-8.1411 -19.5757,-8.1411 -15.2246,0 -27.6108,12.3862 -27.6108,27.6113 0,4.3437 0.9858,8.5068 2.9301,12.374 1.5269,3.0371 1.4063,6.6421 -0.3203,9.5708 -1.7265,2.9282 -4.8227,4.7788 -8.2197,4.9131 -26.8623,1.0605 -47.9048,22.9653 -47.9048,49.8677 0,27.521 22.3027,49.9106 49.7168,49.9106 H 1555 Z"
         id="path78" />
      <path
         fill="#010202"
         d="m 1569.0024,1877.0537 c -2.561,0 -5.1215,-0.9775 -7.0747,-2.9326 -3.9033,-3.9072 -3.8999,-10.2383 0.01,-14.1416 l 61.9034,-61.8408 c 3.9072,-3.9024 10.2387,-3.9004 14.1421,0.01 3.9033,3.9072 3.8999,10.2383 -0.01,14.1416 l -61.9033,61.8408 c -1.9521,1.9502 -4.5097,2.9258 -7.0674,2.9258 z"
         id="path79" />
      <path
         fill="#010202"
         d="m 1630.8745,1877.085 c -2.561,0 -5.1216,-0.9776 -7.0747,-2.9327 l -61.8408,-61.9033 c -3.9033,-3.9072 -3.8999,-10.2383 0.01,-14.1416 3.9077,-3.9023 10.2393,-3.9004 14.1421,0.01 l 61.8408,61.9033 c 3.9033,3.9072 3.8999,10.2383 -0.01,14.1416 -1.9521,1.9502 -4.5098,2.9258 -7.0674,2.9258 z"
         id="path80" />
      <path
         fill="#010202"
         d="m 1649.9541,1846 c 0,0 0,0 0,0 l -100,0.029 c -5.5229,0 -9.998,-4.4971 -9.9951,-10.0195 0,-5.5215 4.4795,-10.0098 10,-10.0098 0,0 0,0 0,0 l 100,0.104 c 5.5229,0 9.998,4.4304 9.9951,9.9529 0,5.5205 -4.48,9.9431 -10,9.9431 z"
         id="path81" />
      <path
         fill="#010202"
         d="m 1599.9287,1896 c 0,0 0,0 0,0 -5.5229,0 -9.998,-4.416 -9.9951,-9.9385 l 0.051,-100.0332 c 0,-5.5215 4.48,-10.0283 10,-10.0283 0,0 0,0 0,0 5.5229,0 9.998,4.5488 9.9951,10.0713 l -0.051,99.9668 c 0,5.5215 -4.48,9.9619 -10,9.9619 z"
         id="path82" />
      <path
         fill="#010202"
         d="m 1707.7109,1832.7344 c -3.4453,0 -6.7968,-1.7813 -8.6533,-4.9736 -2.7773,-4.7735 -1.1592,-10.8946 3.6153,-13.6719 l 60.5058,-35.1992 c 4.7744,-2.7813 10.8955,-1.1592 13.6719,3.6152 2.7773,4.7734 1.1592,10.8945 -3.6152,13.6719 l -60.5059,35.1992 c -1.582,0.9209 -3.3115,1.3584 -5.0186,1.3584 z"
         id="path83" />
      <path
         fill="#010202"
         d="m 1768.707,1831.8301 c -1.6113,0 -3.2451,-0.3906 -4.7617,-1.2129 l -61.5234,-33.3906 c -4.8535,-2.6348 -6.6533,-8.7051 -4.0186,-13.5596 2.6338,-4.8535 8.7031,-6.6523 13.5596,-4.0185 l 61.5234,33.3906 c 4.8535,2.6347 6.6533,8.7051 4.0186,13.5595 -1.8115,3.3379 -5.249,5.2315 -8.7979,5.2315 z"
         id="path84" />
      <path
         fill="#010202"
         d="m 1737.9365,1850 c 0,0 0,0 0,0 -5.5234,0 -9.998,-4.71 -9.9951,-10.2324 l 0.035,-68.7979 c 0,-5.5214 4.4795,-9.9697 10,-9.9697 0,0 0,0 0,0 5.5234,0 9.998,4.3433 9.9951,9.8657 l -0.035,68.9812 c 0,5.5215 -4.4795,10.1531 -10,10.1531 z"
         id="path85" />
    </g>
    <g
       id="g104"
       transform="matrix(0.39182378,0,0,0.39182378,-772.16734,-568.2549)"
       inkscape:label="wind"
       style="display:none">
      <path
         fill="#010202"
         d="m 2335,1712 h -253.082 c -19.6719,0 -36.292,-16.939 -36.292,-36.9893 0,-20.396 16.2539,-36.9897 36.2324,-36.9897 19.9629,0 36.2031,16.4849 36.2031,36.7471 0,5.5229 -4.4775,10 -10,10 -5.5224,0 -10,-4.4771 -10,-10 0,-9.0777 -7.4199,-16.7471 -16.2031,-16.7471 -8.7988,0 -16.2324,7.7803 -16.2324,16.9897 0,9.209 7.4609,16.9893 16.292,16.9893 H 2335 c 5.5225,0 10,4.4771 10,10 0,5.523 -4.4775,10 -10,10 z"
         id="path39" />
      <path
         fill="#010202"
         d="m 2386,1669 h -204.8623 c -25.126,0 -45.5674,-20.6431 -45.5674,-46.0171 0,-25.374 20.3487,-46.0176 45.3604,-46.0176 24.9551,0 45.2568,20.5606 45.2568,45.833 0,5.523 -4.4775,10 -10,10 -5.5224,0 -10,-4.477 -10,-10 0,-14.2441 -11.3301,-25.833 -25.2568,-25.833 -13.9834,0 -25.3604,11.6714 -25.3604,26.0176 0,14.1026 11.708,26.0171 25.5674,26.0171 H 2386 c 5.5225,0 10,4.4771 10,10 0,5.523 -4.4775,10 -10,10 z"
         id="path40" />
      <path
         fill="#010202"
         d="m 2114.3643,1823.8232 c -12.1387,0 -23.5215,-4.6064 -32.0528,-12.9707 -8.6152,-8.4463 -13.3603,-19.79 -13.3603,-31.9404 0,-24.7646 20.418,-44.9121 45.5146,-44.9121 H 2364 c 5.5225,0 10,4.4775 10,10 0,5.5225 -4.4775,10 -10,10 h -249.5342 c -14.3076,0 -25.5146,10.9424 -25.5146,24.9121 0,13.9688 11.1631,24.9111 25.4131,24.9111 14.2216,0 25.3623,-11.0234 25.3623,-25.0957 0,-5.5224 4.4775,-10 10,-10 5.5224,0 10,4.4776 10,10 0,24.8663 -20.3497,45.0957 -45.3623,45.0957 z"
         id="path41" />
    </g>
    <g
       id="g105"
       transform="matrix(0.39182378,0,0,0.39182378,-990.91847,-568.89207)"
       inkscape:label="clouds night rain"
       style="display:none">
      <path
         fill="#010202"
         d="m 2639.0684,1817.6152 c -35.8516,-0.2363 -64.9659,-29.5 -64.9659,-65.2334 0,-30.79 21.0616,-56.5703 49.8448,-63.437 -0.3906,-2.3843 -0.5869,-4.811 -0.5869,-7.2734 0,-24.603 20.0156,-44.6187 44.6181,-44.6187 7.9297,0 15.5391,2.0528 22.2266,5.9082 18.5527,-24.1762 46.9629,-38.3169 77.9473,-38.3169 48.5839,0 89.5703,35.6304 97.1328,82.6895 33.6172,2.5928 60.1797,30.7769 60.1797,65.0483 0,35.6162 -28.9756,64.877 -64.5909,65.2286 z m 28.9101,-160.5625 c -13.5742,0 -24.6181,11.044 -24.6181,24.6187 0,3.872 0.8789,7.584 2.6123,11.0327 1.5273,3.0371 1.4062,6.6421 -0.3204,9.5703 -1.7265,2.9287 -4.8232,4.7788 -8.2197,4.9131 -24.2969,0.9595 -43.3301,20.8115 -43.3301,45.1943 0,24.7784 20.2012,45.0694 45.0323,45.2334 h 221.6406 c 24.5976,-0.2422 44.6894,-20.5323 44.6894,-45.2286 0,-24.9472 -20.2959,-45.2426 -45.2422,-45.2426 -0.9277,0 -1.9384,0.04 -3.1806,0.1264 -2.6651,0.1856 -5.2744,-0.6977 -7.2764,-2.4497 -2.0029,-1.7519 -3.2246,-4.2305 -3.3955,-6.8862 -2.6367,-41.0948 -36.9941,-73.2857 -78.2178,-73.2857 -27.6455,0 -52.7216,14.1319 -67.0791,37.8033 -1.5947,2.6298 -4.3115,4.3793 -7.3652,4.7436 -3.0527,0.3618 -6.1055,-0.6968 -8.2754,-2.8779 -4.6553,-4.6821 -10.8545,-7.2603 -17.4541,-7.2603 z"
         id="path32" />
      <path
         fill="#010202"
         d="m 2921.2471,1700.8843 c -4.2666,0 -8.2178,-2.751 -9.5479,-7.0401 -1.6367,-5.2749 1.3135,-10.8774 6.5879,-12.5136 13.8193,-4.2862 26.4834,-11.9175 36.8184,-22.0362 -20.7188,-5.2119 -39.583,-16.331 -54.3623,-32.2739 -19.1172,-20.6216 -29.6455,-47.4741 -29.6455,-75.6103 0,-16.816 3.7226,-33.1373 10.874,-48.0347 -19.75,1.9941 -38.2803,10.3467 -52.9483,24.0176 -16.8554,15.7099 -27.082,36.9663 -28.7939,59.8535 -0.4111,5.5073 -5.2236,9.6465 -10.7178,9.2261 -5.5068,-0.4122 -9.6377,-5.2105 -9.2256,-10.7183 2.0879,-27.919 14.5537,-53.8413 35.1006,-72.9922 20.6543,-19.25 47.5869,-29.8516 75.836,-29.8516 2.9765,0 6.0205,0.1236 9.0478,0.3677 3.5762,0.2886 6.7246,2.4712 8.249,5.7193 1.5244,3.2485 1.1914,7.0644 -0.872,10 -10.8272,15.3994 -16.5498,33.5234 -16.5498,52.4126 0,23.0776 8.6347,45.1015 24.3125,62.0136 15.5947,16.8223 36.7246,27.0972 59.4961,28.9327 3.5761,0.2885 6.7246,2.4711 8.249,5.7192 1.5244,3.2485 1.1914,7.0649 -0.8721,10 -14.1162,20.0776 -34.7393,35.1206 -58.0703,42.3574 -0.9863,0.3057 -1.9854,0.4512 -2.9658,0.4512 z"
         id="path33" />
      <path
         fill="#010202"
         d="m 2729.2656,1921.127 c -2.5615,0 -5.122,-0.9776 -7.0742,-2.9327 -3.9033,-3.9072 -3.9004,-10.2392 0.01,-14.1416 l 23.0498,-23.0263 c 3.9073,-3.9034 10.2403,-3.9004 14.1416,0.01 3.9034,3.9072 3.9004,10.2393 -0.01,14.1416 l -23.0498,23.0264 c -1.9521,1.9502 -4.5098,2.9258 -7.0674,2.9258 z"
         id="path34" />
      <path
         fill="#010202"
         d="m 2649.1856,1868.6611 c -2.5616,0 -5.1221,-0.9775 -7.0752,-2.9326 -3.9024,-3.9072 -3.8995,-10.2393 0.01,-14.1426 l 14.5361,-14.5205 c 3.9072,-3.9033 10.2392,-3.8994 14.1426,0.01 3.9023,3.9073 3.8994,10.2393 -0.01,14.1426 l -14.5362,14.5205 c -1.9521,1.9502 -4.5097,2.9248 -7.0673,2.9248 z"
         id="path35" />
      <path
         fill="#010202"
         d="m 2777.1289,1868.6611 c -2.5615,0 -5.1211,-0.9775 -7.0742,-2.9326 -3.9033,-3.9072 -3.9004,-10.2383 0.01,-14.1416 l 14.5352,-14.5205 c 3.9072,-3.9033 10.2383,-3.9004 14.1416,0.01 3.9033,3.9073 3.9004,10.2383 -0.01,14.1416 l -14.5351,14.5206 c -1.9522,1.9502 -4.5098,2.9257 -7.0674,2.9257 z"
         id="path36" />
      <path
         fill="#010202"
         d="m 2818.5488,1891.8232 c -2.5615,0 -5.123,-0.9775 -7.0752,-2.9336 -3.9033,-3.9072 -3.8994,-10.2392 0.01,-14.1415 l 37.7315,-37.6827 c 3.9082,-3.9043 10.2412,-3.8994 14.1416,0.01 3.9033,3.9073 3.8994,10.2393 -0.01,14.1416 l -37.7315,37.6826 c -1.9521,1.9502 -4.5097,2.9248 -7.0664,2.9248 z"
         id="path37" />
      <path
         fill="#010202"
         d="m 2679.5606,1901.9482 c -2.5616,0 -5.1221,-0.9775 -7.0743,-2.9326 -3.9033,-3.9072 -3.9004,-10.2392 0.01,-14.1416 l 47.8564,-47.8076 c 3.9073,-3.9033 10.2403,-3.9004 14.1416,0.01 3.9033,3.9073 3.9004,10.2393 -0.01,14.1416 l -47.8565,47.8077 c -1.9521,1.9502 -4.5097,2.9257 -7.0673,2.9257 z"
         id="path38" />
    </g>
    <g
       id="g106"
       transform="matrix(0.39182378,0,0,0.39182378,-135.18432,-802.5052)"
       inkscape:label="snow rain"
       style="display:inline">
      <path
         fill="#010202"
         d="m 519.71045,2389.7344 c -3.44434,0 -6.79639,-1.7813 -8.65283,-4.9736 -2.77734,-4.7735 -1.15869,-10.8946 3.61523,-13.6719 l 60.50635,-35.1992 c 4.77246,-2.7793 10.89502,-1.1592 13.67188,3.6152 2.77734,4.7734 1.15869,10.8945 -3.61523,13.6719 l -60.50635,35.1992 c -1.58155,0.9209 -3.31202,1.3584 -5.01905,1.3584 z"
         id="path86" />
      <path
         fill="#010202"
         d="m 580.70703,2388.8301 c -1.61133,0 -3.24561,-0.3906 -4.76123,-1.2129 l -61.52295,-33.3906 c -4.854,-2.6348 -6.65332,-8.7051 -4.01904,-13.5596 2.63477,-4.8535 8.70508,-6.6514 13.55908,-4.0185 l 61.52295,33.3906 c 4.854,2.6347 6.65332,8.7051 4.01904,13.5595 -1.81201,3.3379 -5.24902,5.2315 -8.79785,5.2315 z"
         id="path87" />
      <path
         fill="#010202"
         d="m 549.93652,2407 c -0.002,0 -0.003,0 -0.005,0 -5.52295,0 -9.99805,-4.71 -9.99512,-10.2324 l 0.0352,-68.7979 c 0.003,-5.5214 4.47998,-9.9697 10,-9.9697 0.002,0 0.003,0 0.005,0 5.52295,0 9.99805,4.3433 9.99512,9.8657 l -0.0352,68.9812 c -0.003,5.5215 -4.47998,10.1531 -10,10.1531 z"
         id="path88" />
      <path
         fill="#010202"
         d="m 614.71045,2355.7344 c -3.44434,0 -6.79639,-1.7813 -8.65283,-4.9736 -2.77734,-4.7735 -1.15869,-10.8946 3.61523,-13.6719 l 60.50635,-35.1992 c 4.77197,-2.7793 10.89453,-1.1602 13.67188,3.6152 2.77734,4.7734 1.15869,10.8945 -3.61523,13.6719 l -60.50635,35.1992 c -1.58155,0.9209 -3.31202,1.3584 -5.01905,1.3584 z"
         id="path89" />
      <path
         fill="#010202"
         d="m 675.70703,2354.8301 c -1.61133,0 -3.24561,-0.3906 -4.76123,-1.2129 l -61.52295,-33.3906 c -4.854,-2.6348 -6.65332,-8.7051 -4.01904,-13.5596 2.63477,-4.8535 8.70508,-6.6523 13.55908,-4.0185 l 61.52295,33.3906 c 4.854,2.6347 6.65332,8.7051 4.01904,13.5595 -1.81201,3.3379 -5.24902,5.2315 -8.79785,5.2315 z"
         id="path90" />
      <path
         fill="#010202"
         d="m 644.93652,2373 c -0.002,0 -0.003,0 -0.005,0 -5.52295,0 -9.99805,-4.71 -9.99512,-10.2324 l 0.0352,-68.7979 c 0.003,-5.5214 4.47998,-9.9697 10,-9.9697 0.002,0 0.003,0 0.005,0 5.52295,0 9.99805,4.3433 9.99512,9.8657 l -0.0352,68.9812 c -0.003,5.5215 -4.47998,10.1531 -10,10.1531 z"
         id="path91" />
      <path
         fill="#010202"
         d="m 532.95801,2471.9394 c -2.56104,0 -5.12158,-0.9775 -7.07471,-2.9326 -3.90332,-3.9072 -3.8999,-10.2392 0.007,-14.1416 l 25.04199,-25.0166 c 3.90723,-3.9033 10.23877,-3.9004 14.14209,0.01 3.90332,3.9072 3.8999,10.2392 -0.007,14.1416 l -25.04199,25.0166 c -1.95215,1.9502 -4.51025,2.9257 -7.06738,2.9257 z"
         id="path92" />
      <path
         fill="#010202"
         d="m 483.95801,2438.9394 c -2.56104,0 -5.12158,-0.9775 -7.07471,-2.9326 -3.90332,-3.9072 -3.8999,-10.2383 0.007,-14.1416 l 15.79199,-15.7763 c 3.90723,-3.9024 10.23877,-3.9004 14.14209,0.01 3.90332,3.9072 3.8999,10.2383 -0.007,14.1416 l -15.79199,15.7764 c -1.95215,1.9502 -4.50977,2.9257 -7.06738,2.9257 z"
         id="path93" />
      <path
         fill="#010202"
         d="m 598.95801,2423.9394 c -2.56104,0 -5.12158,-0.9775 -7.07471,-2.9326 -3.90332,-3.9072 -3.8999,-10.2383 0.007,-14.1416 l 15.79199,-15.7763 c 3.90771,-3.9024 10.23926,-3.9004 14.14209,0.01 3.90332,3.9072 3.8999,10.2383 -0.007,14.1416 l -15.79199,15.7764 c -1.95215,1.9502 -4.50977,2.9257 -7.06738,2.9257 z"
         id="path94" />
      <path
         fill="#010202"
         d="m 639.95801,2441.9394 c -2.56104,0 -5.12158,-0.9775 -7.07471,-2.9326 -3.90332,-3.9072 -3.8999,-10.2383 0.007,-14.1416 l 51.99219,-51.9394 c 3.90723,-3.9033 10.23877,-3.9004 14.14209,0.01 3.90332,3.9072 3.8999,10.2383 -0.007,14.1416 l -51.99219,51.9395 c -1.95215,1.9502 -4.51025,2.9257 -7.06738,2.9257 z"
         id="path95" />
      <path
         fill="#010202"
         d="m 716.07959,2354.0908 h -10.08398 c -5.52295,0 -9.99805,-4.4814 -9.99609,-10.0039 0.002,-5.5215 4.479,-9.9961 10,-9.9961 0.001,0 0.002,0 0.004,0 h 10.03174 c 13.21387,-0.1435 25.58496,-5.3857 34.83838,-14.7656 9.27051,-9.3984 14.37646,-21.8945 14.37646,-35.1875 0,-27.5654 -22.49365,-49.9922 -50.1416,-49.9922 -1.26123,0 -2.646,0.086 -3.57812,0.1504 -2.65381,0.1934 -5.27344,-0.6963 -7.27686,-2.4492 -2.00293,-1.752 -3.2251,-4.2305 -3.39551,-6.8858 -2.89258,-45.0966 -40.61182,-80.4228 -85.87109,-80.4228 -30.34814,0 -57.87305,15.5098 -73.62939,41.4892 -1.59473,2.6299 -4.31152,4.3799 -7.36572,4.7442 -3.0542,0.3603 -6.10596,-0.6973 -8.2749,-2.8779 -5.2207,-5.25 -12.17578,-8.1407 -19.5835,-8.1407 -15.22705,0 -27.61475,12.3858 -27.61475,27.6104 0,4.3467 0.98486,8.5098 2.92773,12.374 1.52734,3.0371 1.40674,6.6426 -0.31982,9.5713 -1.72656,2.9277 -4.82275,4.7793 -8.21973,4.9131 -26.86279,1.0605 -47.90576,22.9658 -47.90576,49.8681 0,27.5206 22.30225,49.9102 49.71582,49.9102 H 487 c 5.52295,0 10,4.4775 10,10 0,5.5225 -4.47705,10 -10,10 h -12.2832 c -38.44141,0 -69.71582,-31.3613 -69.71582,-69.9102 0,-33.2763 22.98828,-61.0947 54.28076,-68.1689 -0.50781,-2.7979 -0.76318,-5.6553 -0.76318,-8.5576 0,-26.253 21.35986,-47.6104 47.61475,-47.6104 8.72461,0 17.08447,2.3262 24.37695,6.6865 19.9834,-26.4248 50.8208,-41.9013 84.47656,-41.9013 52.59814,0 96.93457,38.7295 104.80859,89.7617 36.5,2.4141 65.45459,32.8154 65.45459,69.8379 0,18.583 -7.15186,36.0674 -20.13818,49.2324 -13.00098,13.1787 -30.37793,20.5381 -48.93018,20.7197 -0.0337,10e-4 -0.0679,10e-4 -0.10205,10e-4 z"
         id="path96" />
    </g>
    <g
       id="g107"
       transform="matrix(0.39182378,0,0,0.39182378,-342.80176,-796.05141)"
       inkscape:label="fog"
       style="display:none">
      <path
         fill="#010202"
         d="m 1245.5796,2354.0908 h -10.584 v 0 L 1004.7168,2354 C 966.2749,2354 935,2322.6387 935,2284.0898 c 0,-33.2763 22.98633,-61.0937 54.27881,-68.1679 -0.50879,-2.7989 -0.76416,-5.6563 -0.76416,-8.5586 0,-26.2529 21.35795,-47.6104 47.61085,-47.6104 8.7202,0 17.0781,2.3262 24.3691,6.6866 19.9825,-26.4248 50.814,-41.9014 84.461,-41.9014 52.5849,0 96.9096,38.7285 104.7783,89.7666 36.4019,2.4482 65.2661,32.834 65.2661,69.833 0,38.1963 -31.0962,69.5771 -69.3184,69.9521 -0.034,10e-4 -0.068,10e-4 -0.102,10e-4 z m -10.5762,-20.0039 h 10.5318 c 27.2797,-0.2949 49.4648,-22.6933 49.4648,-49.9531 0,-27.5654 -22.4375,-49.9922 -50.0166,-49.9922 -1.1851,0 -2.4419,0.076 -3.5156,0.1504 -2.6514,0.1934 -5.2735,-0.6963 -7.2769,-2.4492 -2.0029,-1.752 -3.2251,-4.2305 -3.3955,-6.8858 -2.8926,-45.0966 -40.5981,-80.4228 -85.8398,-80.4228 -30.3384,0 -57.8574,15.5098 -73.6138,41.4892 -1.5947,2.6299 -4.3115,4.3799 -7.3657,4.7442 -3.0537,0.3603 -6.1065,-0.6973 -8.2749,-2.8779 -5.2207,-5.25 -12.1729,-8.1407 -19.5757,-8.1407 -15.2246,0 -27.6108,12.3858 -27.6108,27.6104 0,4.3447 0.9858,8.5078 2.9297,12.374 1.5273,3.0371 1.4067,6.6426 -0.3199,9.5713 -1.7265,2.9277 -4.8227,4.7793 -8.2197,4.9131 -26.86232,1.0644 -47.9048,22.9697 -47.9048,49.872 0,27.5206 22.30273,49.9102 49.7168,49.9102 H 1015 Z"
         id="path66" />
      <path
         fill="#010202"
         d="m 1222.625,2439 c 0,0 0,0 -0.01,0 l -56.375,-0.024 c -5.5225,0 -9.9966,-4.4715 -9.9932,-9.9949 0,-5.5205 4.4805,-9.9812 10,-9.9812 0,0 0,0 0.01,0 l 56.375,0.032 c 5.5225,0 9.9966,4.4676 9.9932,9.991 0,5.5205 -4.4805,9.9773 -10,9.9773 z"
         id="path67" />
      <path
         fill="#010202"
         d="m 1127.25,2439 c 0,0 0,0 0,0 l -99.416,-0.024 c -5.5225,0 -9.9981,-4.4685 -9.9961,-9.992 0,-5.5214 4.479,-9.9841 10,-9.9841 0,0 0,0 0,0 l 99.416,0.032 c 5.5225,0 9.9981,4.4646 9.9961,9.9881 0,5.5215 -4.479,9.9802 -10,9.9802 z"
         id="path68" />
      <path
         fill="#010202"
         d="m 1245.875,2397 c -10e-4,0 0,0 0,0 l -129.5411,-0.024 c -5.5229,0 -9.9985,-4.4685 -9.997,-9.991 0,-5.5215 4.4785,-9.9851 10,-9.9851 10e-4,0 0,0 0,0 l 129.541,0.032 c 5.523,0 9.9986,4.4646 9.9971,9.9871 0,5.5215 -4.4785,9.9812 -10,9.9812 z"
         id="path69" />
      <path
         fill="#010202"
         d="m 1078.875,2397 c 0,0 0,0 -0.01,0 l -71.541,-0.024 c -5.5225,0 -9.99755,-4.4705 -9.99462,-9.9929 0.003,-5.5215 4.48002,-9.9832 10.00002,-9.9832 0,0 0,0 0.01,0 l 71.5411,0.032 c 5.5224,0 9.9975,4.4666 9.9946,9.989 0,5.5215 -4.48,9.9793 -10,9.9793 z"
         id="path70" />
    </g>
    <g
       id="g108"
       transform="matrix(0.39182378,0,0,0.39182378,-554.7524,-800.88203)"
       inkscape:label="clear sky night"
       style="display:none">
      <path
         fill="#010202"
         d="m 1675.9121,2414.0977 c -66.168,0 -120,-53.8321 -120,-120 0,-66.168 53.832,-120 120,-120 3.2056,0 6.4898,0.1337 9.7608,0.3974 3.5771,0.2891 6.7246,2.4717 8.249,5.7197 1.5244,3.2481 1.1914,7.0645 -0.8721,10 -11.8657,16.876 -18.1377,36.7383 -18.1377,57.4385 0,25.291 9.4624,49.4258 26.6445,67.96 17.0899,18.4355 40.2461,29.6963 65.2022,31.708 3.5762,0.2881 6.7246,2.4707 8.249,5.7197 1.5244,3.2481 1.1914,7.0645 -0.8721,10 -22.4785,31.9697 -59.1972,51.0567 -98.2236,51.0567 z m -8.5991,-219.6338 c -51.1284,4.3769 -91.4009,47.3916 -91.4009,99.6338 0,55.1406 44.8599,100 100,100 26.8906,0 52.4678,-10.876 71.1123,-29.708 -22.9355,-5.4561 -43.8369,-17.5987 -60.1348,-35.1788 -20.6211,-22.2441 -31.9775,-51.208 -31.9775,-81.5576 0,-18.6582 4.2481,-36.7519 12.4009,-53.1894 z"
         id="path71" />
    </g>
    <g
       id="g109"
       transform="matrix(0.39182378,0,0,0.39182378,-773.81709,-800.38498)"
       inkscape:label="wind rain"
       style="display:none">
      <path
         fill="#010202"
         d="M 2363.708,2277 H 2111 c -5.5225,0 -10,-4.4775 -10,-10 0,-5.5225 4.4775,-10 10,-10 h 252.708 c 8.8565,0 16.3389,-7.6084 16.3389,-16.6143 0,-9.1611 -7.2608,-16.6142 -16.1856,-16.6142 -8.8828,0 -16.1094,7.4004 -16.1094,16.4961 0,5.5224 -4.4775,10 -10,10 -5.5224,0 -10,-4.4776 -10,-10 0,-20.124 16.1983,-36.4961 36.1094,-36.4961 19.9531,0 36.1856,16.4248 36.1856,36.6142 0,20.1895 -16.3018,36.6143 -36.3389,36.6143 z"
         id="path42" />
      <path
         fill="#010202"
         d="M 2264.4883,2234 H 2060 c -5.5225,0 -10,-4.4775 -10,-10 0,-5.5225 4.4775,-10 10,-10 h 204.4883 c 14.124,0 25.6142,-11.5029 25.6142,-25.6426 0,-14.1386 -11.3554,-25.6416 -25.3134,-25.6416 -13.875,0 -25.1631,11.4756 -25.1631,25.5821 0,5.5224 -4.4776,10 -10,10 -5.5225,0 -10,-4.4776 -10,-10 0,-25.1338 20.2597,-45.5821 45.1631,-45.5821 24.9863,0 45.3134,20.4746 45.3134,45.6416 0,25.167 -20.4628,45.6426 -45.6142,45.6426 z"
         id="path43" />
      <path
         fill="#010202"
         d="m 2349.3555,2389.5732 c -24.961,0 -45.2686,-20.3418 -45.2686,-45.3457 0,-5.5224 4.4776,-10 10,-10 5.5225,0 10,4.4776 10,10 0,13.9756 11.335,25.3457 25.2686,25.3457 13.9873,0 25.3672,-11.3437 25.3672,-25.2861 0,-13.9433 -11.4668,-25.2871 -25.5625,-25.2871 H 2080 c -5.5225,0 -10,-4.4775 -10,-10 0,-5.5225 4.4775,-10 10,-10 h 269.1602 c 25.123,0 45.5625,20.3154 45.5625,45.2871 0,24.9707 -20.3516,45.2861 -45.3672,45.2861 z"
         id="path44" />
      <path
         fill="#010202"
         d="m 2182.958,2442.9394 c -2.5615,0 -5.1221,-0.9775 -7.0742,-2.9326 -3.9033,-3.9072 -3.9004,-10.2392 0.01,-14.1416 l 25.042,-25.0166 c 3.9072,-3.9033 10.2403,-3.9004 14.1416,0.01 3.9033,3.9072 3.9004,10.2392 -0.01,14.1416 l -25.042,25.0166 c -1.9522,1.9502 -4.5098,2.9257 -7.0674,2.9257 z"
         id="path45" />
      <path
         fill="#010202"
         d="m 2095.958,2385.9394 c -2.5615,0 -5.1211,-0.9775 -7.0742,-2.9326 -3.9033,-3.9072 -3.9004,-10.2383 0.01,-14.1416 l 15.792,-15.7763 c 3.9072,-3.9034 10.2383,-3.9004 14.1416,0.01 3.9033,3.9072 3.9004,10.2383 -0.01,14.1416 l -15.792,15.7764 c -1.9522,1.9502 -4.5098,2.9257 -7.0674,2.9257 z"
         id="path46" />
      <path
         fill="#010202"
         d="m 2234.958,2385.9394 c -2.5615,0 -5.1211,-0.9775 -7.0742,-2.9326 -3.9033,-3.9072 -3.9004,-10.2383 0.01,-14.1416 l 15.792,-15.7763 c 3.9072,-3.9034 10.2383,-3.9004 14.1416,0.01 3.9033,3.9072 3.9004,10.2383 -0.01,14.1416 l -15.792,15.7764 c -1.9522,1.9502 -4.5098,2.9257 -7.0674,2.9257 z"
         id="path47" />
      <path
         fill="#010202"
         d="m 2277.958,2424.1025 c -2.5635,0 -5.1269,-0.9795 -7.081,-2.9384 -3.8994,-3.9112 -3.8907,-10.2422 0.019,-14.1426 l 18.9922,-18.9395 c 3.9111,-3.8984 10.2412,-3.8926 14.1426,0.02 3.8994,3.9111 3.8906,10.2422 -0.02,14.1425 l -18.9922,18.9395 c -1.9521,1.9463 -4.5068,2.9189 -7.0615,2.9189 z"
         id="path48" />
      <path
         fill="#010202"
         d="m 2128.958,2422.1025 c -2.5615,0 -5.1221,-0.9775 -7.0742,-2.9326 -3.9033,-3.9072 -3.9004,-10.2383 0.01,-14.1416 l 51.9922,-51.9394 c 3.9072,-3.9033 10.2402,-3.9004 14.1416,0.01 3.9033,3.9072 3.9004,10.2383 -0.01,14.1416 l -51.9922,51.9395 c -1.9522,1.9501 -4.5098,2.9257 -7.0674,2.9257 z"
         id="path49" />
    </g>
  </g>
</svg>
