<?xml version="1.0" encoding="UTF-8" standalone="no"?>
<!-- Created with Inkscape (http://www.inkscape.org/) -->

<svg
   width="196mm"
   height="196mm"
   viewBox="0 0 196 196"
   version="1.1"
   id="svg1"
   inkscape:export-filename="snow.svg"
   inkscape:export-xdpi="30.6"
   inkscape:export-ydpi="30.6"
   xmlns:inkscape="http://www.inkscape.org/namespaces/inkscape"
   xmlns:sodipodi="http://sodipodi.sourceforge.net/DTD/sodipodi-0.dtd"
   xmlns="http://www.w3.org/2000/svg"
   xmlns:svg="http://www.w3.org/2000/svg">
  <sodipodi:namedview
     id="namedview1"
     pagecolor="#ffffff"
     bordercolor="#000000"
     borderopacity="0.25"
     inkscape:showpageshadow="2"
     inkscape:pageopacity="0.0"
     inkscape:pagecheckerboard="0"
     inkscape:deskcolor="#d1d1d1"
     inkscape:document-units="mm">
    <inkscape:page
       x="0"
       y="0"
       width="196"
       height="196"
       id="page2"
       margin="0"
       bleed="0" />
  </sodipodi:namedview>
  <defs
     id="defs1" />
  <g
     inkscape:label="Layer 1"
     inkscape:groupmode="layer"
     id="layer1">
    <g
       id="g104"
       transform="matrix(0.39182378,0,0,0.39182378,-772.16734,-568.2549)"
       inkscape:label="wind"
       style="display:inline">
      <path
         fill="#010202"
         d="m 2335,1712 h -253.082 c -19.6719,0 -36.292,-16.939 -36.292,-36.9893 0,-20.396 16.2539,-36.9897 36.2324,-36.9897 19.9629,0 36.2031,16.4849 36.2031,36.7471 0,5.5229 -4.4775,10 -10,10 -5.5224,0 -10,-4.4771 -10,-10 0,-9.0777 -7.4199,-16.7471 -16.2031,-16.7471 -8.7988,0 -16.2324,7.7803 -16.2324,16.9897 0,9.209 7.4609,16.9893 16.292,16.9893 H 2335 c 5.5225,0 10,4.4771 10,10 0,5.523 -4.4775,10 -10,10 z"
         id="path39" />
      <path
         fill="#010202"
         d="m 2386,1669 h -204.8623 c -25.126,0 -45.5674,-20.6431 -45.5674,-46.0171 0,-25.374 20.3487,-46.0176 45.3604,-46.0176 24.9551,0 45.2568,20.5606 45.2568,45.833 0,5.523 -4.4775,10 -10,10 -5.5224,0 -10,-4.477 -10,-10 0,-14.2441 -11.3301,-25.833 -25.2568,-25.833 -13.9834,0 -25.3604,11.6714 -25.3604,26.0176 0,14.1026 11.708,26.0171 25.5674,26.0171 H 2386 c 5.5225,0 10,4.4771 10,10 0,5.523 -4.4775,10 -10,10 z"
         id="path40" />
      <path
         fill="#010202"
         d="m 2114.3643,1823.8232 c -12.1387,0 -23.5215,-4.6064 -32.0528,-12.9707 -8.6152,-8.4463 -13.3603,-19.79 -13.3603,-31.9404 0,-24.7646 20.418,-44.9121 45.5146,-44.9121 H 2364 c 5.5225,0 10,4.4775 10,10 0,5.5225 -4.4775,10 -10,10 h -249.5342 c -14.3076,0 -25.5146,10.9424 -25.5146,24.9121 0,13.9688 11.1631,24.9111 25.4131,24.9111 14.2216,0 25.3623,-11.0234 25.3623,-25.0957 0,-5.5224 4.4775,-10 10,-10 5.5224,0 10,4.4776 10,10 0,24.8663 -20.3497,45.0957 -45.3623,45.0957 z"
         id="path41" />
    </g>
  </g>
</svg>
