<?xml version="1.0" encoding="UTF-8" standalone="no"?>
<!-- Created with Inkscape (http://www.inkscape.org/) -->

<svg
   width="196mm"
   height="196mm"
   viewBox="0 0 196 196"
   version="1.1"
   id="svg1"
   inkscape:export-filename="overcast.svg"
   inkscape:export-xdpi="30.6"
   inkscape:export-ydpi="30.6"
   xmlns:inkscape="http://www.inkscape.org/namespaces/inkscape"
   xmlns:sodipodi="http://sodipodi.sourceforge.net/DTD/sodipodi-0.dtd"
   xmlns="http://www.w3.org/2000/svg"
   xmlns:svg="http://www.w3.org/2000/svg">
  <sodipodi:namedview
     id="namedview1"
     pagecolor="#ffffff"
     bordercolor="#000000"
     borderopacity="0.25"
     inkscape:showpageshadow="2"
     inkscape:pageopacity="0.0"
     inkscape:pagecheckerboard="0"
     inkscape:deskcolor="#d1d1d1"
     inkscape:document-units="mm">
    <inkscape:page
       x="0"
       y="0"
       width="196"
       height="196"
       id="page2"
       margin="0"
       bleed="0" />
  </sodipodi:namedview>
  <defs
     id="defs1" />
  <g
     inkscape:label="Layer 1"
     inkscape:groupmode="layer"
     id="layer1">
    <g
       id="g96"
       transform="matrix(0.39182378,0,0,0.39182378,-342.80176,-322.81874)"
       inkscape:label="clear sky day"
       style="display:inline">
      <path
         fill="#010202"
         d="m 1125.0977,1174.0977 c -55.1402,0 -100,-44.8599 -100,-100 0,-55.1402 44.8598,-100.00004 100,-100.00004 55.1401,0 100,44.85984 100,100.00004 0,55.1401 -44.8599,100 -100,100 z m 0,-180.00004 c -44.1123,0 -80,35.88774 -80,80.00004 0,44.1123 35.8877,80 80,80 44.1123,0 80,-35.8877 80,-80 0,-44.1123 -35.8877,-80.00004 -80,-80.00004 z"
         id="path1" />
      <path
         fill="#010202"
         d="m 1125,958 c -5.5229,0 -10,-4.47705 -10,-10 v -54 c 0,-5.52295 4.4771,-10 10,-10 5.523,0 10,4.47705 10,10 v 54 c 0,5.52295 -4.477,10 -10,10 z"
         id="path2" />
      <path
         fill="#010202"
         d="m 1125,1264 c -5.5229,0 -10,-4.477 -10,-10 v -54 c 0,-5.5229 4.4771,-10 10,-10 5.523,0 10,4.4771 10,10 v 54 c 0,5.523 -4.477,10 -10,10 z"
         id="path3" />
      <path
         fill="#010202"
         d="m 999,1084 h -54 c -5.52295,0 -10,-4.477 -10,-10 0,-5.5229 4.47705,-10 10,-10 h 54 c 5.523,0 10,4.4771 10,10 0,5.523 -4.477,10 -10,10 z"
         id="path4" />
      <path
         fill="#010202"
         d="m 1305,1084 h -54 c -5.5229,0 -10,-4.477 -10,-10 0,-5.5229 4.4771,-10 10,-10 h 54 c 5.523,0 10,4.4771 10,10 0,5.523 -4.477,10 -10,10 z"
         id="path5" />
      <path
         fill="#010202"
         d="m 1213.542,995.45801 c -2.5591,0 -5.1187,-0.97607 -7.0713,-2.92871 -3.9048,-3.90527 -3.9048,-10.2373 0,-14.14258 l 38.7373,-38.7373 c 3.9053,-3.90527 10.2373,-3.90527 14.1426,0 3.9048,3.90527 3.9048,10.2373 0,14.14258 l -38.7373,38.7373 c -1.9527,1.95263 -4.5122,2.92871 -7.0713,2.92871 z"
         id="path6" />
      <path
         fill="#010202"
         d="m 997.7207,1211.2793 c -2.55908,0 -5.11865,-0.9761 -7.07129,-2.9287 -3.90479,-3.9053 -3.90479,-10.2373 0,-14.1426 l 38.73729,-38.7373 c 3.9053,-3.9053 10.2373,-3.9053 14.1426,0 3.9048,3.9053 3.9048,10.2373 0,14.1426 l -38.7373,38.7373 c -1.9526,1.9526 -4.5122,2.9287 -7.0713,2.9287 z"
         id="path7" />
      <path
         fill="#010202"
         d="m 1036.458,995.45801 c -2.5591,0 -5.1186,-0.97607 -7.0713,-2.92871 L 990.64942,953.792 c -3.90479,-3.90527 -3.90479,-10.2373 0,-14.14258 3.90527,-3.90527 10.23728,-3.90527 14.14258,0 l 38.7373,38.7373 c 3.9048,3.90527 3.9048,10.2373 0,14.14258 -1.9526,1.95263 -4.5122,2.92871 -7.0713,2.92871 z"
         id="path8" />
      <path
         fill="#010202"
         d="m 1252.2793,1211.2793 c -2.5591,0 -5.1186,-0.9761 -7.0713,-2.9287 l -38.7373,-38.7373 c -3.9048,-3.9053 -3.9048,-10.2373 0,-14.1426 3.9053,-3.9053 10.2373,-3.9053 14.1426,0 l 38.7373,38.7373 c 3.9048,3.9053 3.9048,10.2373 0,14.1426 -1.9526,1.9526 -4.5122,2.9287 -7.0713,2.9287 z"
         id="path9" />
    </g>
  </g>
</svg>
