<?xml version="1.0" encoding="UTF-8" standalone="no"?>
<!-- Created with Inkscape (http://www.inkscape.org/) -->

<svg
   width="196mm"
   height="196mm"
   viewBox="0 0 196 196"
   version="1.1"
   id="svg1"
   inkscape:export-filename="snow_rain.svg"
   inkscape:export-xdpi="30.6"
   inkscape:export-ydpi="30.6"
   xmlns:inkscape="http://www.inkscape.org/namespaces/inkscape"
   xmlns:sodipodi="http://sodipodi.sourceforge.net/DTD/sodipodi-0.dtd"
   xmlns="http://www.w3.org/2000/svg"
   xmlns:svg="http://www.w3.org/2000/svg">
  <sodipodi:namedview
     id="namedview1"
     pagecolor="#ffffff"
     bordercolor="#000000"
     borderopacity="0.25"
     inkscape:showpageshadow="2"
     inkscape:pageopacity="0.0"
     inkscape:pagecheckerboard="0"
     inkscape:deskcolor="#d1d1d1"
     inkscape:document-units="mm">
    <inkscape:page
       x="0"
       y="0"
       width="196"
       height="196"
       id="page2"
       margin="0"
       bleed="0" />
  </sodipodi:namedview>
  <defs
     id="defs1" />
  <g
     inkscape:label="Layer 1"
     inkscape:groupmode="layer"
     id="layer1">
    <g
       id="g107"
       transform="matrix(0.39182378,0,0,0.39182378,-342.80176,-796.05141)"
       inkscape:label="fog"
       style="display:inline">
      <path
         fill="#010202"
         d="m 1245.5796,2354.0908 h -10.584 v 0 L 1004.7168,2354 C 966.2749,2354 935,2322.6387 935,2284.0898 c 0,-33.2763 22.98633,-61.0937 54.27881,-68.1679 -0.50879,-2.7989 -0.76416,-5.6563 -0.76416,-8.5586 0,-26.2529 21.35795,-47.6104 47.61085,-47.6104 8.7202,0 17.0781,2.3262 24.3691,6.6866 19.9825,-26.4248 50.814,-41.9014 84.461,-41.9014 52.5849,0 96.9096,38.7285 104.7783,89.7666 36.4019,2.4482 65.2661,32.834 65.2661,69.833 0,38.1963 -31.0962,69.5771 -69.3184,69.9521 -0.034,10e-4 -0.068,10e-4 -0.102,10e-4 z m -10.5762,-20.0039 h 10.5318 c 27.2797,-0.2949 49.4648,-22.6933 49.4648,-49.9531 0,-27.5654 -22.4375,-49.9922 -50.0166,-49.9922 -1.1851,0 -2.4419,0.076 -3.5156,0.1504 -2.6514,0.1934 -5.2735,-0.6963 -7.2769,-2.4492 -2.0029,-1.752 -3.2251,-4.2305 -3.3955,-6.8858 -2.8926,-45.0966 -40.5981,-80.4228 -85.8398,-80.4228 -30.3384,0 -57.8574,15.5098 -73.6138,41.4892 -1.5947,2.6299 -4.3115,4.3799 -7.3657,4.7442 -3.0537,0.3603 -6.1065,-0.6973 -8.2749,-2.8779 -5.2207,-5.25 -12.1729,-8.1407 -19.5757,-8.1407 -15.2246,0 -27.6108,12.3858 -27.6108,27.6104 0,4.3447 0.9858,8.5078 2.9297,12.374 1.5273,3.0371 1.4067,6.6426 -0.3199,9.5713 -1.7265,2.9277 -4.8227,4.7793 -8.2197,4.9131 -26.86232,1.0644 -47.9048,22.9697 -47.9048,49.872 0,27.5206 22.30273,49.9102 49.7168,49.9102 H 1015 Z"
         id="path66" />
      <path
         fill="#010202"
         d="m 1222.625,2439 c 0,0 0,0 -0.01,0 l -56.375,-0.024 c -5.5225,0 -9.9966,-4.4715 -9.9932,-9.9949 0,-5.5205 4.4805,-9.9812 10,-9.9812 0,0 0,0 0.01,0 l 56.375,0.032 c 5.5225,0 9.9966,4.4676 9.9932,9.991 0,5.5205 -4.4805,9.9773 -10,9.9773 z"
         id="path67" />
      <path
         fill="#010202"
         d="m 1127.25,2439 c 0,0 0,0 0,0 l -99.416,-0.024 c -5.5225,0 -9.9981,-4.4685 -9.9961,-9.992 0,-5.5214 4.479,-9.9841 10,-9.9841 0,0 0,0 0,0 l 99.416,0.032 c 5.5225,0 9.9981,4.4646 9.9961,9.9881 0,5.5215 -4.479,9.9802 -10,9.9802 z"
         id="path68" />
      <path
         fill="#010202"
         d="m 1245.875,2397 c -10e-4,0 0,0 0,0 l -129.5411,-0.024 c -5.5229,0 -9.9985,-4.4685 -9.997,-9.991 0,-5.5215 4.4785,-9.9851 10,-9.9851 10e-4,0 0,0 0,0 l 129.541,0.032 c 5.523,0 9.9986,4.4646 9.9971,9.9871 0,5.5215 -4.4785,9.9812 -10,9.9812 z"
         id="path69" />
      <path
         fill="#010202"
         d="m 1078.875,2397 c 0,0 0,0 -0.01,0 l -71.541,-0.024 c -5.5225,0 -9.99755,-4.4705 -9.99462,-9.9929 0.003,-5.5215 4.48002,-9.9832 10.00002,-9.9832 0,0 0,0 0.01,0 l 71.5411,0.032 c 5.5224,0 9.9975,4.4666 9.9946,9.989 0,5.5215 -4.48,9.9793 -10,9.9793 z"
         id="path70" />
    </g>
  </g>
</svg>
