<?xml version="1.0" encoding="UTF-8" standalone="no"?>
<!-- Created with Inkscape (http://www.inkscape.org/) -->

<svg
   width="196mm"
   height="196mm"
   viewBox="0 0 196 196"
   version="1.1"
   id="svg1"
   inkscape:export-filename="cloudy_night_rain.svg"
   inkscape:export-xdpi="30.6"
   inkscape:export-ydpi="30.6"
   xmlns:inkscape="http://www.inkscape.org/namespaces/inkscape"
   xmlns:sodipodi="http://sodipodi.sourceforge.net/DTD/sodipodi-0.dtd"
   xmlns="http://www.w3.org/2000/svg"
   xmlns:svg="http://www.w3.org/2000/svg">
  <sodipodi:namedview
     id="namedview1"
     pagecolor="#ffffff"
     bordercolor="#000000"
     borderopacity="0.25"
     inkscape:showpageshadow="2"
     inkscape:pageopacity="0.0"
     inkscape:pagecheckerboard="0"
     inkscape:deskcolor="#d1d1d1"
     inkscape:document-units="mm">
    <inkscape:page
       x="0"
       y="0"
       width="196"
       height="196"
       id="page2"
       margin="0"
       bleed="0" />
  </sodipodi:namedview>
  <defs
     id="defs1" />
  <g
     inkscape:label="Layer 1"
     inkscape:groupmode="layer"
     id="layer1">
    <g
       id="g106"
       transform="matrix(0.39182378,0,0,0.39182378,-135.18432,-802.5052)"
       inkscape:label="snow rain"
       style="display:inline">
      <path
         fill="#010202"
         d="m 519.71045,2389.7344 c -3.44434,0 -6.79639,-1.7813 -8.65283,-4.9736 -2.77734,-4.7735 -1.15869,-10.8946 3.61523,-13.6719 l 60.50635,-35.1992 c 4.77246,-2.7793 10.89502,-1.1592 13.67188,3.6152 2.77734,4.7734 1.15869,10.8945 -3.61523,13.6719 l -60.50635,35.1992 c -1.58155,0.9209 -3.31202,1.3584 -5.01905,1.3584 z"
         id="path86" />
      <path
         fill="#010202"
         d="m 580.70703,2388.8301 c -1.61133,0 -3.24561,-0.3906 -4.76123,-1.2129 l -61.52295,-33.3906 c -4.854,-2.6348 -6.65332,-8.7051 -4.01904,-13.5596 2.63477,-4.8535 8.70508,-6.6514 13.55908,-4.0185 l 61.52295,33.3906 c 4.854,2.6347 6.65332,8.7051 4.01904,13.5595 -1.81201,3.3379 -5.24902,5.2315 -8.79785,5.2315 z"
         id="path87" />
      <path
         fill="#010202"
         d="m 549.93652,2407 c -0.002,0 -0.003,0 -0.005,0 -5.52295,0 -9.99805,-4.71 -9.99512,-10.2324 l 0.0352,-68.7979 c 0.003,-5.5214 4.47998,-9.9697 10,-9.9697 0.002,0 0.003,0 0.005,0 5.52295,0 9.99805,4.3433 9.99512,9.8657 l -0.0352,68.9812 c -0.003,5.5215 -4.47998,10.1531 -10,10.1531 z"
         id="path88" />
      <path
         fill="#010202"
         d="m 614.71045,2355.7344 c -3.44434,0 -6.79639,-1.7813 -8.65283,-4.9736 -2.77734,-4.7735 -1.15869,-10.8946 3.61523,-13.6719 l 60.50635,-35.1992 c 4.77197,-2.7793 10.89453,-1.1602 13.67188,3.6152 2.77734,4.7734 1.15869,10.8945 -3.61523,13.6719 l -60.50635,35.1992 c -1.58155,0.9209 -3.31202,1.3584 -5.01905,1.3584 z"
         id="path89" />
      <path
         fill="#010202"
         d="m 675.70703,2354.8301 c -1.61133,0 -3.24561,-0.3906 -4.76123,-1.2129 l -61.52295,-33.3906 c -4.854,-2.6348 -6.65332,-8.7051 -4.01904,-13.5596 2.63477,-4.8535 8.70508,-6.6523 13.55908,-4.0185 l 61.52295,33.3906 c 4.854,2.6347 6.65332,8.7051 4.01904,13.5595 -1.81201,3.3379 -5.24902,5.2315 -8.79785,5.2315 z"
         id="path90" />
      <path
         fill="#010202"
         d="m 644.93652,2373 c -0.002,0 -0.003,0 -0.005,0 -5.52295,0 -9.99805,-4.71 -9.99512,-10.2324 l 0.0352,-68.7979 c 0.003,-5.5214 4.47998,-9.9697 10,-9.9697 0.002,0 0.003,0 0.005,0 5.52295,0 9.99805,4.3433 9.99512,9.8657 l -0.0352,68.9812 c -0.003,5.5215 -4.47998,10.1531 -10,10.1531 z"
         id="path91" />
      <path
         fill="#010202"
         d="m 532.95801,2471.9394 c -2.56104,0 -5.12158,-0.9775 -7.07471,-2.9326 -3.90332,-3.9072 -3.8999,-10.2392 0.007,-14.1416 l 25.04199,-25.0166 c 3.90723,-3.9033 10.23877,-3.9004 14.14209,0.01 3.90332,3.9072 3.8999,10.2392 -0.007,14.1416 l -25.04199,25.0166 c -1.95215,1.9502 -4.51025,2.9257 -7.06738,2.9257 z"
         id="path92" />
      <path
         fill="#010202"
         d="m 483.95801,2438.9394 c -2.56104,0 -5.12158,-0.9775 -7.07471,-2.9326 -3.90332,-3.9072 -3.8999,-10.2383 0.007,-14.1416 l 15.79199,-15.7763 c 3.90723,-3.9024 10.23877,-3.9004 14.14209,0.01 3.90332,3.9072 3.8999,10.2383 -0.007,14.1416 l -15.79199,15.7764 c -1.95215,1.9502 -4.50977,2.9257 -7.06738,2.9257 z"
         id="path93" />
      <path
         fill="#010202"
         d="m 598.95801,2423.9394 c -2.56104,0 -5.12158,-0.9775 -7.07471,-2.9326 -3.90332,-3.9072 -3.8999,-10.2383 0.007,-14.1416 l 15.79199,-15.7763 c 3.90771,-3.9024 10.23926,-3.9004 14.14209,0.01 3.90332,3.9072 3.8999,10.2383 -0.007,14.1416 l -15.79199,15.7764 c -1.95215,1.9502 -4.50977,2.9257 -7.06738,2.9257 z"
         id="path94" />
      <path
         fill="#010202"
         d="m 639.95801,2441.9394 c -2.56104,0 -5.12158,-0.9775 -7.07471,-2.9326 -3.90332,-3.9072 -3.8999,-10.2383 0.007,-14.1416 l 51.99219,-51.9394 c 3.90723,-3.9033 10.23877,-3.9004 14.14209,0.01 3.90332,3.9072 3.8999,10.2383 -0.007,14.1416 l -51.99219,51.9395 c -1.95215,1.9502 -4.51025,2.9257 -7.06738,2.9257 z"
         id="path95" />
      <path
         fill="#010202"
         d="m 716.07959,2354.0908 h -10.08398 c -5.52295,0 -9.99805,-4.4814 -9.99609,-10.0039 0.002,-5.5215 4.479,-9.9961 10,-9.9961 0.001,0 0.002,0 0.004,0 h 10.03174 c 13.21387,-0.1435 25.58496,-5.3857 34.83838,-14.7656 9.27051,-9.3984 14.37646,-21.8945 14.37646,-35.1875 0,-27.5654 -22.49365,-49.9922 -50.1416,-49.9922 -1.26123,0 -2.646,0.086 -3.57812,0.1504 -2.65381,0.1934 -5.27344,-0.6963 -7.27686,-2.4492 -2.00293,-1.752 -3.2251,-4.2305 -3.39551,-6.8858 -2.89258,-45.0966 -40.61182,-80.4228 -85.87109,-80.4228 -30.34814,0 -57.87305,15.5098 -73.62939,41.4892 -1.59473,2.6299 -4.31152,4.3799 -7.36572,4.7442 -3.0542,0.3603 -6.10596,-0.6973 -8.2749,-2.8779 -5.2207,-5.25 -12.17578,-8.1407 -19.5835,-8.1407 -15.22705,0 -27.61475,12.3858 -27.61475,27.6104 0,4.3467 0.98486,8.5098 2.92773,12.374 1.52734,3.0371 1.40674,6.6426 -0.31982,9.5713 -1.72656,2.9277 -4.82275,4.7793 -8.21973,4.9131 -26.86279,1.0605 -47.90576,22.9658 -47.90576,49.8681 0,27.5206 22.30225,49.9102 49.71582,49.9102 H 487 c 5.52295,0 10,4.4775 10,10 0,5.5225 -4.47705,10 -10,10 h -12.2832 c -38.44141,0 -69.71582,-31.3613 -69.71582,-69.9102 0,-33.2763 22.98828,-61.0947 54.28076,-68.1689 -0.50781,-2.7979 -0.76318,-5.6553 -0.76318,-8.5576 0,-26.253 21.35986,-47.6104 47.61475,-47.6104 8.72461,0 17.08447,2.3262 24.37695,6.6865 19.9834,-26.4248 50.8208,-41.9013 84.47656,-41.9013 52.59814,0 96.93457,38.7295 104.80859,89.7617 36.5,2.4141 65.45459,32.8154 65.45459,69.8379 0,18.583 -7.15186,36.0674 -20.13818,49.2324 -13.00098,13.1787 -30.37793,20.5381 -48.93018,20.7197 -0.0337,10e-4 -0.0679,10e-4 -0.10205,10e-4 z"
         id="path96" />
    </g>
  </g>
</svg>
